<svg width="25" height="24" viewBox="0 0 25 24" fill="none" xmlns="http://www.w3.org/2000/svg">
<path d="M22.3295 15.888V22.8C22.3295 23.136 22.2146 23.42 21.9849 23.652C21.7552 23.884 21.4741 24 21.1414 24H2.13148C1.7988 24 1.51762 23.88 1.28791 23.64C1.05821 23.4 0.943359 23.12 0.943359 22.8V8.4H8.07207C8.40475 8.4 8.68593 8.284 8.91564 8.052C9.14534 7.82 9.26019 7.536 9.26019 7.2V0H21.1414C21.4741 0 21.7552 0.115999 21.9849 0.348C22.2146 0.580001 22.3295 0.863998 22.3295 1.2V5.712L11.6364 16.512V21.6H16.6741L22.3295 15.888ZM23.2562 8.16L24.9434 9.864L15.6998 19.2H14.0127V17.496L23.2562 8.16ZM0.943359 6L6.88395 0V6H0.943359Z" fill="#FA4748"/>
</svg>
