<svg width="27" height="25" viewBox="0 0 27 25" fill="none" xmlns="http://www.w3.org/2000/svg">
<path d="M0.943359 25C0.943359 23.2698 1.37669 21.6667 2.24336 20.1905C3.07852 18.7619 4.20517 17.627 5.62336 16.7857C7.08882 15.9127 8.68032 15.4762 10.3979 15.4762C12.1155 15.4762 13.707 15.9127 15.1725 16.7857C16.5906 17.627 17.7173 18.7619 18.5525 20.1905C19.4191 21.6667 19.8525 23.2698 19.8525 25H0.943359ZM10.3979 14.2857C9.10578 14.2857 7.91609 13.9603 6.82881 13.3095C5.75729 12.6746 4.90639 11.8175 4.27609 10.7381C3.63002 9.64285 3.307 8.44445 3.307 7.14286C3.307 5.84126 3.63002 4.64286 4.27609 3.54762C4.90639 2.46825 5.75729 1.61111 6.82881 0.976191C7.91609 0.325394 9.10578 0 10.3979 0C11.69 0 12.8797 0.325394 13.967 0.976191C15.0385 1.61111 15.8894 2.46825 16.5197 3.54762C17.1658 4.64286 17.4888 5.84126 17.4888 7.14286C17.4888 8.44445 17.1658 9.64285 16.5197 10.7381C15.8894 11.8175 15.0385 12.6746 13.967 13.3095C12.8797 13.9603 11.69 14.2857 10.3979 14.2857ZM22.2161 19.0476H26.9434V21.4286H22.2161V19.0476ZM18.6706 13.0952H26.9434V15.4762H18.6706V13.0952ZM21.0343 7.14286H26.9434V9.52381H21.0343V7.14286Z" fill="#FA4748"/>
</svg>
