<svg width="23" height="26" viewBox="0 0 23 26" fill="none" xmlns="http://www.w3.org/2000/svg">
<path d="M1.45832 2.15091L11.3183 0L21.1782 2.15091C21.4501 2.21394 21.674 2.35576 21.8499 2.57636C22.0259 2.79697 22.1138 3.04121 22.1138 3.30909V15.1036C22.1138 16.3012 21.8299 17.42 21.2622 18.46C20.6944 19.5 19.9067 20.3509 18.8991 21.0127L11.3183 26L3.73738 21.0127C2.72979 20.3509 1.94212 19.5 1.37435 18.46C0.806585 17.42 0.522705 16.3091 0.522705 15.1273V3.30909C0.522705 3.04121 0.610668 2.79697 0.786597 2.57636C0.962525 2.35576 1.18643 2.21394 1.45832 2.15091ZM10.1188 10.6364H6.41119V13H10.1188V17.2661H12.5178V13H16.2253V10.6364H12.5178V6.50963H10.1188V10.6364Z" fill="#FA4748"/>
</svg>
