<svg width="23" height="23" viewBox="0 0 23 23" fill="none" xmlns="http://www.w3.org/2000/svg">
<path d="M1.71207 0.134818L21.6748 0.134766C22.0013 0.134766 22.2773 0.247495 22.5028 0.472956C22.7283 0.698417 22.841 0.974409 22.841 1.30094V21.4069C22.841 21.7334 22.7283 22.0094 22.5028 22.2349C22.2773 22.4603 22.0013 22.5731 21.6748 22.5731L1.71207 22.5731C1.38554 22.5731 1.10955 22.4604 0.884089 22.2349C0.658628 22.0095 0.545898 21.7335 0.545898 21.4069L0.545898 1.30099C0.545898 0.974461 0.658628 0.69847 0.884089 0.473009C1.10955 0.247547 1.38554 0.134818 1.71207 0.134818ZM14.8369 8.6873L11.9681 11.5328L9.49585 9.06048L4.55127 14.0051L6.20724 15.661L9.49585 12.3491L11.9681 14.8447L16.4696 10.32L18.5687 12.4191V6.5882H12.7378L14.8369 8.6873Z" fill="#FA4748"/>
</svg>
