<svg width="284" height="80" viewBox="0 0 284 80" fill="none" xmlns="http://www.w3.org/2000/svg">
<path d="M22.2791 60.847C16.8831 60.847 13.7534 56.6684 13.7534 51.9541C13.7534 46.4898 17.3148 42.8469 22.2791 42.8469C24.8691 42.8469 26.5958 43.9183 28.2146 44.8826L30.8047 40.2755C28.9701 39.0969 25.8404 37.704 22.6028 37.704C14.0772 37.704 7.92578 43.704 7.92578 51.9541C7.92578 60.097 14.1851 66.2042 22.6028 66.2042C26.1642 66.2042 28.7542 64.7042 30.8047 63.5256L28.2146 58.9184C26.5958 59.9899 24.2216 60.847 22.2791 60.847ZM40.5174 25.1682H46.0213V65.4542H40.5174V25.1682ZM77.7496 38.5612L77.1021 40.9183C75.5913 39.3112 72.4616 37.704 69.1161 37.704C62.3172 37.704 56.0578 43.0612 56.0578 51.7398C56.0578 60.7399 62.3172 66.2042 69.1161 66.2042C72.4616 66.2042 75.4833 64.597 77.1021 62.9899L77.7496 65.4542H82.3902V38.6683H77.7496V38.5612ZM77.21 52.1684C77.21 58.2756 73.4329 61.0613 69.8715 61.0613C66.2023 61.0613 61.9934 58.597 61.9934 51.847C61.9934 47.5612 64.2597 42.954 69.4398 42.954C73.325 42.954 77.21 46.0612 77.21 51.847V52.1684ZM102.032 54.3113C105.809 55.2755 107.427 56.0256 107.427 57.9541C107.427 59.4541 106.132 60.9542 103.111 60.9542C100.305 60.9542 98.0385 59.9899 95.8801 58.8113L93.398 63.4185C95.3405 64.597 99.5494 66.2042 103.111 66.2042C109.154 66.2042 112.716 62.1327 112.716 58.0613C112.716 50.9898 105.701 49.9184 103.866 49.2755C99.981 48.2041 99.0098 47.4541 99.0098 45.8469C99.0098 44.1326 100.521 42.954 103.327 42.954C105.809 42.954 107.643 43.704 109.37 44.5612L111.96 39.954C109.478 38.8826 106.564 37.8111 103.327 37.8111C97.391 37.8111 93.8296 41.9897 93.8296 45.8469C93.7217 51.9541 99.0098 53.5613 102.032 54.3113ZM131.494 54.3113C135.271 55.2755 136.889 56.0256 136.889 57.9541C136.889 59.4541 135.594 60.9542 132.573 60.9542C129.767 60.9542 127.5 59.9899 125.342 58.8113L122.86 63.4185C124.803 64.597 129.011 66.2042 132.573 66.2042C138.616 66.2042 142.178 62.1327 142.178 58.0613C142.178 50.9898 135.163 49.9184 133.328 49.2755C129.443 48.2041 128.472 47.4541 128.472 45.8469C128.472 44.1326 129.983 42.954 132.789 42.954C135.271 42.954 137.105 43.704 138.832 44.5612L141.422 39.954C138.94 38.8826 136.026 37.8111 132.789 37.8111C126.853 37.8111 123.292 41.9897 123.292 45.8469C123.184 51.9541 128.472 53.5613 131.494 54.3113ZM166.028 37.704C162.682 37.704 159.66 39.3112 158.042 40.9183L157.394 38.454H152.754V76.5971H157.934V63.3113L158.15 63.2042C159.66 64.8113 162.682 66.097 165.596 66.097C172.611 66.097 179.086 61.597 179.086 51.6327C179.194 42.6326 172.935 37.704 166.028 37.704ZM165.38 61.0613C161.819 61.0613 158.042 58.2756 158.042 52.1684V51.847C158.042 45.9541 161.927 42.954 165.812 42.954C170.992 42.954 173.258 47.5612 173.258 51.847C173.258 58.597 169.049 61.0613 165.38 61.0613ZM209.843 38.5612L209.195 41.0255C207.685 39.4183 204.555 37.8111 201.209 37.8111C194.411 37.8111 188.151 43.1683 188.151 51.847C188.151 60.847 194.411 66.3113 201.209 66.3113C204.555 66.3113 207.577 64.7042 209.195 63.097L209.843 65.5613H214.484V38.7754H209.843V38.5612ZM209.303 52.1684C209.303 58.2756 205.526 61.0613 201.965 61.0613C198.296 61.0613 194.087 58.597 194.087 51.847C194.087 47.5612 196.353 42.954 201.533 42.954C205.418 42.954 209.303 46.0612 209.303 51.847V52.1684ZM234.125 54.3113C237.902 55.2755 239.521 56.0256 239.521 57.9541C239.521 59.4541 238.226 60.9542 235.204 60.9542C232.398 60.9542 230.132 59.9899 227.973 58.8113L225.491 63.4185C227.434 64.597 231.643 66.2042 235.204 66.2042C241.248 66.2042 244.809 62.1327 244.809 58.0613C244.809 50.9898 237.794 49.9184 235.96 49.2755C232.074 48.2041 231.103 47.4541 231.103 45.8469C231.103 44.1326 232.614 42.954 235.42 42.954C237.902 42.954 239.737 43.704 241.463 44.5612L244.053 39.954C241.571 38.8826 238.658 37.8111 235.42 37.8111C229.484 37.8111 225.923 41.9897 225.923 45.8469C225.815 51.9541 231.103 53.5613 234.125 54.3113ZM263.587 54.3113C267.364 55.2755 268.983 56.0256 268.983 57.9541C268.983 59.4541 267.688 60.9542 264.666 60.9542C261.86 60.9542 259.594 59.9899 257.435 58.8113L254.953 63.4185C256.896 64.597 261.105 66.2042 264.666 66.2042C270.71 66.2042 274.271 62.1327 274.271 58.0613C274.271 50.9898 267.256 49.9184 265.422 49.2755C261.536 48.2041 260.565 47.4541 260.565 45.8469C260.565 44.1326 262.076 42.954 264.882 42.954C267.364 42.954 269.199 43.704 270.925 44.5612L273.515 39.954C271.033 38.8826 268.12 37.8111 264.882 37.8111C258.946 37.8111 255.385 41.9897 255.385 45.8469C255.277 51.9541 260.565 53.5613 263.587 54.3113Z" fill="#333333"/>
</svg>
