<svg width="262" height="44" viewBox="0 0 262 44" fill="none" xmlns="http://www.w3.org/2000/svg">
<path fill-rule="evenodd" clip-rule="evenodd" d="M44.1701 4.3961C44.1701 2.25398 42.4302 0.518555 40.2926 0.518555H4.00744C1.86983 0.518555 0.129883 2.25398 0.129883 4.3961V39.9489C0.129883 42.091 1.86983 43.8264 4.00744 43.8264H40.2926C42.4302 43.8264 44.1701 42.091 44.1701 39.9489V4.3961ZM29.9256 36.433C29.7946 36.3562 29.6361 36.3561 29.505 36.4284C27.4036 37.5446 24.8911 38.1955 22.1886 38.1955C14.8358 38.1955 8.86564 33.3689 8.86564 27.4261C8.86564 24.7055 10.1313 22.2381 12.1876 20.3445C17.5067 17.1404 27.7245 17.7911 32.646 20.7512C34.4447 22.586 35.5156 24.9044 35.5156 27.4261C35.5156 29.4598 34.8786 31.471 33.5635 33.0211C33.3059 34.0334 34.4356 36.3563 35.4886 37.5313C35.8095 37.8883 35.6018 38.2316 34.8787 38.1412C33.2608 37.9514 31.6565 37.3956 29.9256 36.433ZM25.5688 24.4977C25.5688 23.5848 24.8231 22.8438 23.9103 22.8438H16.2593C15.3419 22.8438 14.6008 23.5848 14.6008 24.4977V30.5761C14.6008 31.489 15.3419 32.2302 16.2593 32.2302H23.9103C24.8231 32.2302 25.5688 31.489 25.5688 30.5761V24.4977ZM29.9751 31.5839C29.9751 31.6246 29.9524 31.6606 29.9208 31.6832C29.8846 31.7013 29.8439 31.7013 29.8078 31.6832C29.1209 31.3126 26.5087 29.8981 26.0794 29.6676C26.0433 29.6496 26.0207 29.6135 26.0207 29.5683L26.03 27.4579C26.03 27.4217 26.0207 25.709 26.0207 25.3474C26.0207 25.3068 26.0433 25.2705 26.0794 25.2479C26.5087 25.0174 29.1209 23.6029 29.8078 23.2324C29.8439 23.2143 29.8846 23.2142 29.9208 23.2368C29.9524 23.2548 29.9751 23.291 29.9751 23.3317C29.9751 24.4705 29.9751 30.445 29.9751 31.5839ZM5.82441 14.9757L5.99123 12.1106L3.4518 11.0529V10.2124L23.3003 6.14951L41.011 12.9646V13.9183L30.5673 16.0649L33.6311 19.9784C28.5966 16.5031 16.8559 15.7484 11.2475 19.5942L13.7463 15.2694L7.74509 12.8291C7.74509 12.8291 7.2028 10.8045 6.97232 9.94584C6.96328 9.91421 6.93599 9.89609 6.90435 9.90061C6.87272 9.90061 6.85007 9.92767 6.85007 9.9593C6.77324 11.2021 6.5429 14.9938 6.5429 14.9938C6.84117 15.1881 7.04881 15.5992 7.08044 16.0918L7.12105 16.9235C7.12557 17.0772 7.15275 17.2352 7.19342 17.3889C7.21602 17.4838 7.2431 17.5877 7.27022 17.6826C7.31993 17.8724 7.34724 18.0622 7.35628 18.2566C7.40147 19.3141 7.55525 22.9206 7.59592 23.8606C7.60044 24.0007 7.51911 24.1316 7.38805 24.1859C6.93161 24.3666 6.36222 24.4525 5.8425 24.4299C5.32731 24.4118 4.76224 24.2898 4.32387 24.0729C4.19734 24.0096 4.12485 23.874 4.14293 23.7339C4.25139 22.7984 4.66746 19.2101 4.78948 18.1617C4.81208 17.9719 4.85243 17.7821 4.9157 17.5968C4.94734 17.5064 4.98381 17.398 5.01544 17.3121C5.06967 17.1585 5.10549 17.0049 5.12357 16.8467L5.22331 16.0197C5.28658 15.5451 5.52162 15.1519 5.82441 14.9757ZM14.2526 17.2082C14.23 17.276 14.2525 17.3482 14.3113 17.3889C14.37 17.4251 14.4468 17.4206 14.501 17.3754C17.1583 15.0345 20.3986 14.5734 24.8772 14.1802C24.9902 14.1712 25.0763 14.0763 25.0763 13.9633C25.0808 13.8503 24.9951 13.7554 24.8821 13.7464C21.9897 13.4707 17.2806 13.299 15.6944 14.3475C15.0978 14.7406 14.5237 16.3495 14.2526 17.2082ZM23.3184 6.80952C23.3184 6.80952 32.8675 10.5559 38.9143 12.9239C38.9956 12.9556 39.0363 13.0505 39.0092 13.1318C38.9775 13.2177 38.8871 13.2629 38.8013 13.2357C32.7048 11.2744 23.1556 8.2103 23.1556 8.2103C23.1556 8.2103 14.0175 9.46675 8.43622 10.2305C8.35487 10.2441 8.28251 10.1898 8.26895 10.1085C8.2554 10.0316 8.30544 9.95487 8.38679 9.93679C14.0042 8.76179 23.3184 6.80952 23.3184 6.80952Z" fill="#FF0042"/>
<path fill-rule="evenodd" clip-rule="evenodd" d="M77.5581 37.448C75.1553 38.7915 72.3995 39.554 69.4695 39.554C59.2108 39.554 52.5676 31.8107 52.5676 22.2711C52.5676 12.7289 59.4385 4.9856 69.4695 4.9856C74.0961 4.9856 78.4794 6.71034 81.6422 9.81942C82.0286 10.2007 82.2257 10.733 82.1822 11.2729C82.1387 11.8129 81.8597 12.3041 81.417 12.6189C80.2757 13.4454 78.7712 14.5177 77.7016 15.2802C76.9697 15.8022 75.9716 15.751 75.2986 15.1548C73.7888 13.7985 71.9183 12.8799 69.7739 12.8799C64.2748 12.8799 60.7639 17.12 60.7639 22.3376C60.7639 27.5578 64.0573 31.7953 69.7739 31.7953C73.991 31.7953 76.9928 29.0548 77.5507 26.5241V26.1811H70.9459C70.1475 26.1811 69.4975 25.5311 69.4975 24.7302V21.2219C69.4975 20.4236 70.1475 19.7736 70.9459 19.7736H79.0935C79.1575 19.7659 79.2216 19.7633 79.2882 19.7633H83.4974C83.5614 19.7633 83.6281 19.7659 83.6921 19.7736H83.7865C84.5849 19.7736 85.2349 20.4236 85.2349 21.2219V37.2766C85.2349 38.2337 84.457 39.0141 83.4974 39.0141H79.2882C78.3874 39.0141 77.6452 38.3258 77.5581 37.448ZM125.963 36.6726C124.443 38.4741 122.199 39.554 119.023 39.554C113.056 39.554 107.541 34.9915 107.541 26.9668C107.541 20.0167 111.958 14.3998 119.102 14.3998C122.199 14.3998 124.435 15.5156 125.963 17.3682V16.0325C125.963 15.4056 126.472 14.8989 127.096 14.8989H132.16C132.982 14.8989 133.647 15.5641 133.647 16.383V37.5274C133.647 38.3488 132.982 39.0141 132.16 39.0141C130.681 39.0141 128.44 39.0141 127.096 39.0141C126.472 39.0141 125.963 38.5049 125.963 37.8805V36.6726ZM155.977 17.4705V6.82556C155.977 6.20119 156.486 5.69192 157.11 5.69192C158.453 5.69192 160.695 5.69192 162.177 5.69192C162.996 5.69192 163.661 6.35725 163.661 7.17866C163.661 12.7008 163.661 32.0053 163.661 37.5274C163.661 38.3488 162.996 39.0141 162.177 39.0141C160.695 39.0141 158.453 39.0141 157.11 39.0141C156.486 39.0141 155.977 38.5049 155.977 37.8805V36.5729C154.457 38.4333 152.189 39.554 148.955 39.554C142.988 39.554 137.47 34.9915 137.47 26.9668C137.47 20.0167 141.887 14.3998 149.032 14.3998C152.187 14.3998 154.446 15.5565 155.977 17.4705ZM222.729 36.6726C221.209 38.4741 218.965 39.554 215.789 39.554C209.822 39.554 204.305 34.9915 204.305 26.9668C204.305 20.0167 208.724 14.3998 215.868 14.3998C218.962 14.3998 221.201 15.5156 222.729 17.3682V16.0325C222.729 15.4056 223.235 14.8989 223.862 14.8989C225.206 14.8989 227.447 14.8989 228.926 14.8989C229.748 14.8989 230.413 15.5641 230.413 16.383C230.413 20.7024 230.413 33.2105 230.413 37.5274C230.413 38.3488 229.748 39.0141 228.926 39.0141C227.447 39.0141 225.206 39.0141 223.862 39.0141C223.235 39.0141 222.729 38.5049 222.729 37.8805V36.6726ZM243.364 36.5729V37.8805C243.364 38.5049 242.857 39.0141 242.23 39.0141C240.887 39.0141 238.645 39.0141 237.166 39.0141C236.345 39.0141 235.679 38.3488 235.679 37.5274C235.679 32.0053 235.679 12.7008 235.679 7.17866C235.679 6.35725 236.345 5.69192 237.166 5.69192C238.645 5.69192 240.887 5.69192 242.23 5.69192C242.857 5.69192 243.364 6.20119 243.364 6.82556V17.4705C244.894 15.5565 247.156 14.3998 250.309 14.3998C257.453 14.3998 261.87 20.0167 261.87 26.9668C261.87 34.9915 256.356 39.554 250.388 39.554C247.154 39.554 244.884 38.4333 243.364 36.5729ZM192.902 37.448C190.499 38.7915 187.743 39.554 184.813 39.554C174.552 39.554 167.911 31.8107 167.911 22.2711C167.911 12.7289 174.78 4.9856 184.813 4.9856C189.44 4.9856 193.823 6.71034 196.986 9.81942C197.372 10.2007 197.569 10.733 197.526 11.2729C197.482 11.8129 197.201 12.3041 196.761 12.6189C195.619 13.4454 194.115 14.5177 193.045 15.2802C192.313 15.8022 191.315 15.751 190.642 15.1548C189.13 13.7985 187.262 12.8799 185.118 12.8799C179.618 12.8799 176.108 17.12 176.108 22.3376C176.108 27.5578 179.401 31.7953 185.118 31.7953C189.335 31.7953 192.334 29.0548 192.894 26.5241V26.1811H186.29C185.491 26.1811 184.841 25.5311 184.841 24.7302V21.2219C184.841 20.4236 185.491 19.7736 186.29 19.7736H194.437C194.501 19.7659 194.565 19.7633 194.632 19.7633H198.841C198.905 19.7633 198.969 19.7659 199.033 19.7736H199.128C199.929 19.7736 200.579 20.4236 200.579 21.2219V37.2766C200.579 38.2337 199.798 39.0141 198.841 39.0141H194.632C193.731 39.0141 192.989 38.3258 192.902 37.448ZM97.9069 18.7807C98.9535 16.644 101.072 15.229 103.89 14.3922C104.279 14.2745 104.698 14.3487 105.026 14.5893C105.351 14.8324 105.543 15.2136 105.543 15.6205C105.548 17.3912 105.548 20.1497 105.548 21.5802C105.548 21.813 105.45 22.0331 105.279 22.1918C105.108 22.3479 104.877 22.4272 104.647 22.4067C100.868 22.0766 98.0937 23.3151 97.9069 28.5788V37.2766C97.9069 38.2337 97.1289 39.0141 96.1693 39.0141H91.9624C91.0028 39.0141 90.2248 38.2337 90.2248 37.2766V16.6364C90.2248 15.6768 91.0028 14.8989 91.9624 14.8989H96.1693C97.1289 14.8989 97.9069 15.6768 97.9069 16.6364V18.7807ZM120.484 21.6954C123.371 21.6954 125.717 24.0521 125.717 26.9539C125.717 29.8557 123.371 32.2125 120.484 32.2125C117.595 32.2125 115.251 29.8557 115.251 26.9539C115.251 24.0521 117.595 21.6954 120.484 21.6954ZM150.413 21.6954C153.302 21.6954 155.646 24.0521 155.646 26.9539C155.646 29.8557 153.302 32.2125 150.413 32.2125C147.524 32.2125 145.181 29.8557 145.181 26.9539C145.181 24.0521 147.524 21.6954 150.413 21.6954ZM217.25 21.6954C220.137 21.6954 222.483 24.0521 222.483 26.9539C222.483 29.8557 220.137 32.2125 217.25 32.2125C214.361 32.2125 212.015 29.8557 212.015 26.9539C212.015 24.0521 214.361 21.6954 217.25 21.6954ZM248.927 21.6954C246.038 21.6954 243.694 24.0521 243.694 26.9539C243.694 29.8557 246.038 32.2125 248.927 32.2125C251.816 32.2125 254.16 29.8557 254.16 26.9539C254.16 24.0521 251.816 21.6954 248.927 21.6954Z" fill="black"/>
</svg>
