<svg width="184" height="80" viewBox="0 0 184 80" fill="none" xmlns="http://www.w3.org/2000/svg">
<path fill-rule="evenodd" clip-rule="evenodd" d="M27.4864 46.8511C28.903 46.8648 30.0316 46.8757 30.1542 47.9267C30.607 51.8085 13.8231 51.8339 13.8231 39.9605C13.8231 12.7241 83.0905 1.87571 85.2615 27.6384C86.5022 42.3621 63.7865 43.8524 63.7865 43.8524C63.7865 43.8524 64.7841 45.0473 64.7539 49.9316C64.7357 52.8559 62.2267 56.1051 60.019 58.9641C57.73 61.9285 55.7649 64.4734 57.236 65.8017C60.404 68.6621 77.4553 55.8143 83.6357 47.3538C83.8307 47.0822 84.146 46.9206 84.4823 46.9206H87.7258C88.133 46.9206 88.5025 47.1567 88.6713 47.5241C88.8401 47.8918 88.7767 48.323 88.5094 48.6275C85.5348 52.028 79.4558 59.3838 81.8626 60.1068C86.8441 61.6033 100.731 41.5648 100.731 41.5648L98.7931 41.5909C98.4919 41.5951 98.2079 41.4531 98.0318 41.2111C97.8555 40.9688 97.8098 40.6565 97.9087 40.3748C97.981 40.1683 98.0536 39.9617 98.1184 39.7771L98.134 39.7329C98.263 39.3648 98.6128 39.1183 99.0059 39.1183H102.825C102.825 39.1183 105.512 35.3564 106.433 34.0686C106.624 33.8006 106.933 33.639 107.264 33.6342C107.895 33.6241 108.989 33.6071 109.956 33.5921C110.339 33.5863 110.695 33.7905 110.881 34.1233C111.067 34.4565 111.052 34.8639 110.844 35.1831L108.27 39.1183H111.366C111.651 39.1183 111.92 39.2489 112.095 39.4723C112.27 39.6957 112.331 39.9866 112.26 40.2605C112.204 40.4767 112.148 40.6969 112.097 40.8936C111.992 41.3 111.622 41.5837 111.199 41.5824L106.488 41.5648C104.782 44.1454 102.64 47.0083 100.628 49.6972C96.4541 55.2769 92.8409 60.1068 94.8395 60.1068C100.237 60.1068 107.893 49.6726 109.518 47.3675C109.712 47.0877 110.032 46.9206 110.375 46.9206H114.071C114.48 46.9206 114.852 47.16 115.019 47.5313C115.187 47.9026 115.118 48.3367 114.844 48.6393C111.777 52.039 105.548 59.3607 108.058 60.1068C111.979 61.2714 121.114 49.683 122.918 47.332C123.115 47.073 123.422 46.9206 123.749 46.9206H126.962C127.369 46.9206 127.738 47.1561 127.907 47.5228C128.076 47.8895 128.014 48.3204 127.748 48.6252C124.765 52.0547 118.599 59.5131 120.843 60.1068C123.469 60.8013 126.148 57.9743 129.265 54.6845C132.859 50.8917 137.036 46.4837 142.386 46.1471C146.767 45.8716 147.622 48.9138 147.622 48.9138C147.622 48.9138 148.213 47.9889 148.59 47.3994C148.781 47.1014 149.112 46.9206 149.468 46.9206C149.908 46.9208 150.56 46.9209 151.275 46.921C151.884 46.921 152.539 46.9211 153.145 46.9213C153.554 46.9213 153.924 47.1587 154.092 47.5277C154.26 47.8967 154.195 48.3292 153.925 48.6331C150.862 52.0902 144.523 59.6043 147.015 59.8883C151.505 60.4002 155.509 54.9428 162.426 45.5151C164.909 42.131 167.767 38.2355 171.157 33.9208C171.353 33.6723 171.652 33.526 171.969 33.5238L174.953 33.5026C175.338 33.4997 175.692 33.7078 175.875 34.0429C176.058 34.3783 176.039 34.7864 175.826 35.1036C172.226 40.4545 168.792 45.0753 165.996 48.8378C160.928 55.6571 157.955 59.6573 159.889 60.0762C162.431 60.6269 168.836 54.3152 170.839 52.2618C171.191 51.8977 171.757 51.8394 172.177 52.1244C172.192 52.1353 172.208 52.1461 172.224 52.1569C172.242 52.1691 172.26 52.1813 172.278 52.1937C172.524 52.3611 172.686 52.6256 172.722 52.9197C172.758 53.2134 172.665 53.5085 172.466 53.7293C169.867 56.5718 161.359 65.3643 155.442 65.4975C150.524 65.6082 152.613 60.5686 152.613 60.5686C152.613 60.5686 146.607 65.5414 142.806 65.4975C139.004 65.4535 139.765 61.0767 139.765 61.0767C139.765 61.0767 136.485 65.6043 131.121 65.4975C125.756 65.3906 126.848 59.9462 126.848 59.9462C126.848 59.9462 121.86 65.4017 116.879 65.4975C111.898 65.5932 114.492 59.6495 114.492 59.6495C114.492 59.6495 108.462 65.8964 103.748 65.4975C99.0328 65.0985 101.268 59.716 101.268 59.716C101.268 59.716 94.6346 65.6261 90.0591 65.4975C85.4839 65.3688 87.8385 60.0996 87.8385 60.0996C87.8385 60.0996 82.8475 66.069 77.9163 65.4975C72.9851 64.9259 74.9039 59.858 74.9039 59.858C74.9039 59.858 57.7266 75.7079 50.8812 67.7792C47.4069 63.7553 51.1012 59.034 54.8949 54.1858C57.5719 50.7646 60.2984 47.2801 60.5905 43.9328C57.0849 44.0178 52.16 42.7428 54.5218 38.7822C56.501 35.4625 61.2269 38.037 62.7507 41.4762C82.1677 40.3911 84.5479 15.1133 59.028 15.4218C34.5117 15.7178 20.1404 35.271 21.4034 42.4126C22.1795 46.7998 25.206 46.8291 27.4864 46.8511ZM142.864 55.1903C145.118 52.4478 146.471 49.5104 144.933 49.1125C139.029 47.5844 131.493 59.3825 135.382 60.099C137.452 60.4804 140.609 57.9329 142.864 55.1903ZM60.293 41.853C59.8703 40.5298 56.5036 38.8516 55.9664 39.7641C55.0935 41.2469 59.0441 42.1699 60.293 41.853Z" fill="#0088C3"/>
<path d="M15.1281 57.6428C15.8276 58.8265 14.703 60.0619 13.7411 61.1186C13.0199 61.9109 12.3901 62.6028 12.6894 63.0969C14.2161 65.619 16.4351 67.0002 19.3861 66.7029C26.3606 66.0009 32.947 56.519 39.9642 46.4167C48.324 34.3817 57.2954 21.4661 68.2634 21.4661C69.9737 21.4661 71.636 21.6987 71.3178 22.82C71.1471 23.4216 70.274 23.591 69.0709 23.8244C67.5758 24.1144 65.5711 24.5032 63.7713 25.9433C60.4465 28.6035 56.7611 34.1993 52.5899 40.5331C43.9711 53.62 33.2777 69.8571 19.4028 69.8571C10.3069 69.8571 7 64.3997 7 61.8317C7 58.0447 13.1975 54.3755 15.1281 57.6428Z" fill="#0088C3"/>
<path d="M92.9273 43.5529C94.525 41.9903 94.8519 39.7498 93.6574 38.5486C92.463 37.3475 90.1995 37.6405 88.6018 39.2031C87.0041 40.7658 86.6772 43.0063 87.8717 44.2074C89.0661 45.4086 91.3296 45.1155 92.9273 43.5529Z" fill="#0088C3"/>
</svg>
