<svg width="324" height="80" viewBox="0 0 324 80" fill="none" xmlns="http://www.w3.org/2000/svg">
<path d="M22.4441 66.8678C26.592 66.8678 29.7497 66.1378 31.9171 64.6777C34.0845 63.2177 35.1682 61.1345 35.1682 58.4284C35.1682 58.227 35.1557 58.0319 35.1308 57.8431C34.9564 54.9481 33.3309 52.8965 30.2542 51.6882C29.0708 51.235 26.9159 50.719 23.7893 50.14L20.8746 49.6302C18.1715 49.1141 16.82 48.0506 16.82 46.4395C16.82 45.3822 17.2934 44.5577 18.2401 43.9661C19.1867 43.3746 20.5632 43.0788 22.3693 43.0788C26.1062 43.0788 28.2113 44.4444 28.6847 47.1758H34.4021C34.3274 41.0586 30.36 38 22.5001 38C18.7632 38 15.8702 38.7112 13.8212 40.1335C11.7721 41.5558 10.7476 43.5571 10.7476 46.1374C10.7476 47.2828 10.9438 48.296 11.3362 49.1771C11.7285 50.0582 12.2174 50.7662 12.8029 51.3011C13.3883 51.836 14.1637 52.3143 15.1291 52.736C16.0945 53.1577 16.9913 53.4692 17.8197 53.6706C18.648 53.872 19.6601 54.0796 20.8559 54.2936L24.163 54.8789C25.7948 55.1558 26.9844 55.5523 27.7318 56.0684C28.4791 56.5844 28.8528 57.3019 28.8528 58.2207C28.8528 59.3032 28.2954 60.1654 27.1806 60.8073C26.0657 61.4492 24.4869 61.7702 22.4441 61.7702C20.2891 61.745 18.6605 61.3674 17.5581 60.6374C16.4557 59.9073 15.8484 58.8878 15.7363 57.5788H10.0001C9.98776 60.7129 11.0279 63.0446 13.1205 64.5739C15.2132 66.1032 18.321 66.8678 22.4441 66.8678ZM50.8969 66.8678C55.0885 66.8678 58.2897 65.8546 60.5007 63.8281C62.7117 61.8016 63.8172 58.7556 63.8172 54.6901V38.8874H57.4271V54.5202C57.4271 56.7103 56.8759 58.4127 55.7736 59.6273C54.6712 60.8419 53.0456 61.4492 50.8969 61.4492C48.7482 61.4492 47.1258 60.8419 46.0296 59.6273C44.9335 58.4127 44.3854 56.7103 44.3854 54.5202V38.8874H37.9766V54.6901C37.9766 58.7431 39.0821 61.7859 41.2931 63.8187C43.5041 65.8515 46.7054 66.8678 50.8969 66.8678ZM73.5202 65.9616V58.7116H81.1808C84.7433 58.7116 87.4713 57.8683 89.3646 56.1816C91.258 54.495 92.2047 52.0406 92.2047 48.8184C92.2047 45.5961 91.2611 43.1354 89.374 41.4362C87.4868 39.737 84.7558 38.8874 81.1808 38.8874H67.1675V65.9616H73.5202ZM80.7511 53.3307H73.5202V44.2682H80.7511C82.3455 44.2682 83.5911 44.6553 84.488 45.4294C85.3848 46.2035 85.8333 47.3331 85.8333 48.8184C85.8333 50.3036 85.3848 51.427 84.488 52.1885C83.5911 52.95 82.3455 53.3307 80.7511 53.3307ZM117.789 65.9616V60.6751H101.59V54.709H117.21V50.0833H101.59V44.1549H117.789V38.8874H95.2373V65.9616H117.789ZM127.53 65.9616V57.8997H136.181L140.572 65.9616H146.887L141.655 56.6159C143.075 55.8481 144.19 54.7751 145 53.3968C145.809 52.0186 146.214 50.4169 146.214 48.5918C146.214 45.4325 145.283 43.0253 143.421 41.3701C141.559 39.715 138.834 38.8874 135.247 38.8874H121.177V65.9616H127.53ZM134.892 52.972H127.53V44.2682H134.892C136.511 44.2682 137.75 44.6395 138.61 45.3822C139.469 46.1248 139.899 47.2041 139.899 48.6201C139.899 50.0361 139.469 51.1155 138.61 51.8581C137.75 52.6007 136.511 52.972 134.892 52.972ZM160.644 66.8678C164.792 66.8678 167.95 66.1378 170.117 64.6777C172.285 63.2177 173.369 61.1345 173.369 58.4284C173.369 58.227 173.356 58.0319 173.331 57.8431C173.157 54.9481 171.531 52.8965 168.455 51.6882C167.271 51.235 165.116 50.719 161.99 50.14L159.075 49.6302C156.372 49.1141 155.02 48.0506 155.02 46.4395C155.02 45.3822 155.494 44.5577 156.44 43.9661C157.387 43.3746 158.764 43.0788 160.57 43.0788C164.307 43.0788 166.412 44.4444 166.885 47.1758H172.603C172.528 41.0586 168.56 38 160.701 38C156.964 38 154.071 38.7112 152.022 40.1335C149.973 41.5558 148.948 43.5571 148.948 46.1374C148.948 47.2828 149.144 48.296 149.537 49.1771C149.929 50.0582 150.418 50.7662 151.003 51.3011C151.589 51.836 152.364 52.3143 153.33 52.736C154.295 53.1577 155.192 53.4692 156.02 53.6706C156.848 53.872 157.861 54.0796 159.056 54.2936L162.363 54.8789C163.995 55.1558 165.185 55.5523 165.932 56.0684C166.68 56.5844 167.053 57.3019 167.053 58.2207C167.053 59.3032 166.496 60.1654 165.381 60.8073C164.266 61.4492 162.687 61.7702 160.644 61.7702C158.49 61.745 156.861 61.3674 155.758 60.6374C154.656 59.9073 154.049 58.8878 153.937 57.5788H148.201C148.188 60.7129 149.228 63.0446 151.321 64.5739C153.414 66.1032 156.521 66.8678 160.644 66.8678ZM190.452 65.9616V57.2956L201.532 38.8874H194.768L187.631 51.0085H186.958L179.802 38.8874H173.057L184.081 57.2578V65.9616H190.452ZM213.589 66.8678C217.737 66.8678 220.895 66.1378 223.062 64.6777C225.23 63.2177 226.313 61.1345 226.313 58.4284C226.313 58.227 226.301 58.0319 226.276 57.8431C226.101 54.9481 224.476 52.8965 221.399 51.6882C220.216 51.235 218.061 50.719 214.934 50.14L212.02 49.6302C209.317 49.1141 207.965 48.0506 207.965 46.4395C207.965 45.3822 208.438 44.5577 209.385 43.9661C210.332 43.3746 211.708 43.0788 213.514 43.0788C217.251 43.0788 219.356 44.4444 219.83 47.1758H225.547C225.472 41.0586 221.505 38 213.645 38C209.908 38 207.015 38.7112 204.966 40.1335C202.917 41.5558 201.893 43.5571 201.893 46.1374C201.893 47.2828 202.089 48.296 202.481 49.1771C202.874 50.0582 203.362 50.7662 203.948 51.3011C204.533 51.836 205.309 52.3143 206.274 52.736C207.24 53.1577 208.136 53.4692 208.965 53.6706C209.793 53.872 210.805 54.0796 212.001 54.2936L215.308 54.8789C216.94 55.1558 218.129 55.5523 218.877 56.0684C219.624 56.5844 219.998 57.3019 219.998 58.2207C219.998 59.3032 219.44 60.1654 218.326 60.8073C217.211 61.4492 215.632 61.7702 213.589 61.7702C211.434 61.745 209.805 61.3674 208.703 60.6374C207.601 59.9073 206.993 58.8878 206.881 57.5788H201.145C201.133 60.7129 202.173 63.0446 204.266 64.5739C206.358 66.1032 209.466 66.8678 213.589 66.8678ZM243.92 65.9616V44.2682H253.972V38.8874H227.533V44.2682H237.548V65.9616H243.92ZM279.706 65.9616V60.6751H263.507V54.709H279.127V50.0833H263.507V44.1549H279.706V38.8874H257.154V65.9616H279.706ZM289.185 65.9616V49.6491H289.727L295.631 65.9616H300.583L306.468 49.6491H307.01V65.9616H313.101V38.8874H304.973L298.34 57.8809H297.873L291.24 38.8874H283.094V65.9616H289.185Z" fill="#222222"/>
</svg>
