<svg width="258" height="51" viewBox="0 0 258 51" fill="none" xmlns="http://www.w3.org/2000/svg">
<path fill-rule="evenodd" clip-rule="evenodd" d="M49.7932 11.1911C49.7932 5.23629 44.9593 0.402344 39.0054 0.402344H11.281C5.32711 0.402344 0.493164 5.23629 0.493164 11.1911V38.9141C0.493164 44.8689 5.32711 49.7015 11.281 49.7015H39.0054C44.9593 49.7015 49.7932 44.8689 49.7932 38.9141V11.1911Z" fill="#050505"/>
<path fill-rule="evenodd" clip-rule="evenodd" d="M25.1741 28.4412C27.2885 28.4412 27.9012 27.3211 29.6084 27.3211C34.4749 27.3211 37.5977 34.6088 34.8894 37.5385C34.3366 38.1371 33.5525 38.4659 32.7385 38.4659H17.6099C16.7957 38.4659 16.0116 38.1371 15.459 37.5385C12.7507 34.6088 15.8733 27.3211 20.74 27.3211C22.447 27.3211 23.0596 28.4412 25.1741 28.4412ZM38.1283 33.0533C37.6766 33.0556 37.2866 32.7382 37.1959 32.296C37.1592 32.1146 37.1177 31.9128 37.0744 31.7019C36.7485 30.1124 35.7218 28.7542 34.2804 28.0059C34.2801 28.0059 34.2797 28.0059 34.2795 28.0059C33.0811 27.3846 33.8872 26.0581 35.5336 26.0581C36.9102 26.0581 37.649 26.0581 38.9913 26.0581C39.9954 26.0581 40.9577 26.4572 41.6649 27.1692C42.3724 27.8834 42.7662 28.8471 42.759 29.8516C42.756 30.2734 42.7531 30.6883 42.7504 31.0738C42.7427 32.1622 41.8604 33.0397 40.7727 33.0443C39.8561 33.0465 38.8181 33.0511 38.1283 33.0533ZM12.2199 33.0533C12.6713 33.0556 13.0613 32.7382 13.152 32.296C13.189 32.1146 13.2303 31.9128 13.2738 31.7019C13.5996 30.1124 14.6264 28.7542 16.0676 28.0059C16.068 28.0059 16.0683 28.0059 16.0687 28.0059C17.2671 27.3846 16.4608 26.0581 14.8143 26.0581C13.4377 26.0581 12.699 26.0581 11.3566 26.0581C10.3528 26.0581 9.39049 26.4572 8.68303 27.1692C7.97579 27.8834 7.58193 28.8471 7.58896 29.8516C7.59213 30.2734 7.59508 30.6883 7.5978 31.0738C7.60551 32.1622 8.48757 33.0397 9.57551 33.0443C10.4918 33.0465 11.5299 33.0511 12.2199 33.0533ZM25.1741 13.6934C28.6429 13.6934 31.4591 16.5096 31.4591 19.9789C31.4591 23.4482 28.6429 26.2645 25.1741 26.2645C21.7053 26.2645 18.8893 23.4482 18.8893 19.9789C18.8893 16.5096 21.7053 13.6934 25.1741 13.6934ZM37.4612 17.4915C35.5817 17.4915 34.0557 19.0175 34.0557 20.8973C34.0557 22.777 35.5817 24.3031 37.4612 24.3031C39.3407 24.3031 40.8668 22.777 40.8668 20.8973C40.8668 19.0175 39.3407 17.4915 37.4612 17.4915ZM12.887 17.4915C14.7665 17.4915 16.2925 19.0175 16.2925 20.8973C16.2925 22.777 14.7665 24.3031 12.887 24.3031C11.0072 24.3031 9.48141 22.777 9.48141 20.8973C9.48141 19.0175 11.0072 17.4915 12.887 17.4915ZM42.3796 5.55151C43.5664 5.55151 44.5299 6.51497 44.5299 7.70178C44.5299 8.88859 43.5664 9.85228 42.3796 9.85228C41.1928 9.85228 40.2294 8.88859 40.2294 7.70178C40.2294 6.51497 41.1928 5.55151 42.3796 5.55151Z" fill="#FFA100"/>
<path d="M125.582 17.986C122.26 17.986 120.259 19.3874 118.938 20.9429H118.636L118.146 18.2581L111.54 18.7252C112.144 22.5777 112.37 25.4189 112.37 28.4143V50.5949H119.504V39.0375L119.278 38.5318H119.58C120.901 40.2052 122.939 41.0624 125.657 41.0624C131.508 41.0624 136.113 35.8857 136.113 29.5049C136.113 23.1219 131.432 17.986 125.582 17.986ZM168.992 29.5435C168.992 35.9265 174.352 41.0624 180.958 41.0624C187.563 41.0624 192.923 35.9265 192.923 29.5435C192.923 23.1605 187.563 17.986 180.958 17.986C174.352 17.986 168.992 23.1605 168.992 29.5435ZM195.641 29.5435C195.641 35.9265 201.001 41.0624 207.606 41.0624C214.212 41.0624 219.572 35.9265 219.572 29.5435C219.572 23.1605 214.212 17.986 207.606 17.986C201.001 17.986 195.641 23.1605 195.641 29.5435ZM93.8632 41.0624C97.1848 41.0624 99.1854 39.661 100.506 38.1055H100.809L101.299 40.7903L107.905 40.3232V40.2438C107.301 36.4707 107.074 33.6295 107.074 30.6319V18.6867H99.9403V20.0109L100.167 20.5166H99.8648C98.5437 18.8432 96.5055 17.986 93.7877 17.986C87.9371 17.986 83.332 23.1605 83.332 29.5435C83.332 35.9265 88.0126 41.0624 93.8632 41.0624ZM69.1808 40.3617H76.8433V15.8841H85.5625V8.87976H60.4615V15.8841H69.1808V40.3617ZM229.839 21.2943L229.348 18.2581L222.743 18.7638C223.346 22.8884 223.573 25.691 223.573 28.4143V40.3617H230.707V28.2986C230.707 26.1195 231.839 24.3691 233.84 24.2897C236.105 24.3691 237.011 26.1966 237.011 28.3372V40.3617H244.069V28.1807C244.069 25.9245 245.277 24.2897 247.24 24.2897C249.58 24.2897 250.373 26.0402 250.373 28.3372V40.3617H257.507V28.3372C257.507 21.5664 253.959 17.986 247.995 17.986C245.428 17.986 242.786 19.1538 241.427 21.3329C240.181 19.1152 238.256 17.986 235.614 17.986C233.689 17.986 231.349 19.1152 230.141 21.2943H229.839ZM158.911 28.3757C162.95 27.1309 165.894 23.5119 165.894 18.9973C165.894 13.3943 161.289 8.87976 155.703 8.87976H141.095V40.3617H148.757V28.9607H150.909L157.968 40.3617H167.14L161.327 31.684L158.911 28.6478V28.3757ZM176.315 29.5435C176.315 26.6252 178.391 24.2897 180.958 24.2897C183.524 24.2897 185.6 26.6252 185.6 29.5435C185.6 32.4617 183.524 34.7587 180.958 34.7587C178.391 34.7587 176.315 32.4617 176.315 29.5435ZM202.964 29.5435C202.964 26.6252 205.04 24.2897 207.606 24.2897C210.173 24.2897 212.249 26.6252 212.249 29.5435C212.249 32.4617 210.173 34.7587 207.606 34.7587C205.04 34.7587 202.964 32.4617 202.964 29.5435ZM90.6549 29.5435C90.6549 26.6252 92.7308 24.2897 95.2976 24.2897C97.8642 24.2897 99.9403 26.6252 99.9403 29.5435C99.9403 32.4617 97.8642 34.7587 95.2976 34.7587C92.7308 34.7587 90.6549 32.4617 90.6549 29.5435ZM128.79 29.5049C128.79 32.4232 126.714 34.7587 124.147 34.7587C121.58 34.7587 119.504 32.4232 119.504 29.5049C119.504 26.5867 121.58 24.2897 124.147 24.2897C126.714 24.2897 128.79 26.5867 128.79 29.5049ZM148.757 22.2671V15.8455H154.835C156.571 15.8455 157.968 17.2854 157.968 19.0767C157.968 20.8658 156.571 22.2671 154.835 22.2671H148.757Z" fill="black"/>
</svg>
