<svg width="158" height="80" viewBox="0 0 158 80" fill="none" xmlns="http://www.w3.org/2000/svg">
<path fill-rule="evenodd" clip-rule="evenodd" d="M124.111 31.6609V39.9702C124.06 39.9412 124.007 39.9121 123.957 39.8845C123.804 39.8006 123.651 39.7199 123.495 39.6434L123.355 39.5734C123.349 39.5701 123.34 39.566 123.337 39.5653C123.077 39.4372 122.814 39.3199 122.555 39.2134L122.236 39.0861C122.13 39.0454 122.021 39.0054 121.915 38.9671C121.765 38.9123 121.602 38.8566 121.42 38.7992C121.299 38.7608 121.19 38.7268 121.084 38.6969C121.027 38.6793 120.97 38.6636 120.911 38.6486C120.857 38.633 120.804 38.6188 120.756 38.6061L120.747 38.6037C120.639 38.5746 120.526 38.5463 120.404 38.518C120.35 38.5047 120.295 38.4914 120.243 38.4797L120.18 38.4657C120.139 38.4565 120.1 38.4481 120.061 38.4398C120.044 38.4357 120.026 38.4323 120.003 38.4282C119.946 38.4156 119.888 38.4041 119.835 38.394C119.768 38.3799 119.701 38.3674 119.632 38.355C119.525 38.3359 119.416 38.3176 119.306 38.3001C119.251 38.2914 119.194 38.2828 119.136 38.2741L119.093 38.2676L119.092 38.2675C119.001 38.2551 118.91 38.2427 118.818 38.2319C118.733 38.221 118.647 38.2111 118.563 38.2027C117.622 38.1029 116.65 38.0955 115.715 38.1779C115.533 38.1944 115.363 38.2119 115.208 38.2319C115.171 38.236 115.133 38.2402 115.096 38.246C115.083 38.2477 115.069 38.2496 115.055 38.2515C115.044 38.253 115.033 38.2545 115.023 38.2561L114.981 38.2618C114.784 38.2892 114.605 38.3184 114.432 38.3491L114.255 38.3825C114.136 38.4049 114.016 38.4298 113.894 38.4556C113.775 38.4823 113.656 38.5097 113.537 38.5389C112.771 38.7285 112.009 38.9855 111.272 39.3032C109.524 40.0593 107.966 41.1381 106.645 42.5088C105.328 43.8763 104.324 45.4567 103.657 47.2072C103.368 47.9672 103.145 48.7554 102.996 49.5512L102.992 49.5768C102.991 49.5872 102.989 49.5976 102.987 49.6074L102.983 49.6241L102.982 49.6344C102.966 49.7201 102.952 49.8071 102.939 49.8916C102.927 49.9606 102.916 50.031 102.907 50.1014C102.905 50.1116 102.903 50.1231 102.902 50.1347C102.894 50.1833 102.888 50.2332 102.882 50.2831C102.878 50.3191 102.873 50.3547 102.869 50.3914L102.86 50.4584L102.845 50.5965L102.844 50.5981C102.837 50.6691 102.829 50.7404 102.824 50.8089C102.814 50.9011 102.807 50.9945 102.801 51.0904C102.8 51.1133 102.799 51.1366 102.796 51.1595L102.795 51.1697C102.792 51.2132 102.788 51.2887 102.786 51.3514L102.782 51.4218C102.78 51.4332 102.78 51.4446 102.78 51.4572L102.779 51.4743C102.775 51.5613 102.773 51.647 102.77 51.743V51.7494C102.767 51.8466 102.767 51.9451 102.767 52.0436V52.0564C102.767 52.1242 102.767 52.192 102.769 52.2637L102.773 52.4518C102.775 52.5337 102.778 52.6143 102.782 52.6911C102.783 52.7054 102.783 52.7197 102.784 52.734C102.785 52.7491 102.786 52.7641 102.786 52.779C102.788 52.8154 102.79 52.8508 102.792 52.8843C102.796 52.9495 102.8 53.0135 102.804 53.0698C102.807 53.1096 102.81 53.1489 102.813 53.1856L102.817 53.2361C102.819 53.2564 102.821 53.2769 102.823 53.2972C102.825 53.314 102.826 53.3307 102.828 53.347L102.83 53.373C102.837 53.4408 102.843 53.5086 102.851 53.5726C102.856 53.6238 102.863 53.6762 102.869 53.7274C102.882 53.8408 102.898 53.9542 102.914 54.0687L102.916 54.0857C103.378 57.1628 104.925 60.0429 107.273 62.1976C109.938 64.6427 113.4 65.9912 117.021 65.9912C117.091 65.9912 117.161 65.99 117.234 65.9888L117.243 65.9887C117.733 65.981 118.225 65.949 118.699 65.894C118.737 65.8914 118.773 65.8863 118.808 65.8812C118.983 65.8594 119.139 65.839 119.283 65.8159C119.316 65.8103 119.349 65.805 119.382 65.7997C119.409 65.7954 119.436 65.7911 119.463 65.7865C119.545 65.7725 119.628 65.7583 119.713 65.7417L119.871 65.711C119.884 65.7085 119.897 65.7059 119.907 65.7033C119.922 65.7003 119.937 65.6973 119.952 65.6943C119.964 65.6919 119.976 65.6895 119.988 65.6871C120.004 65.6839 120.02 65.6806 120.035 65.6774C120.042 65.6758 120.05 65.6742 120.057 65.6726C120.108 65.6624 120.16 65.6509 120.213 65.6381L120.231 65.6342L120.368 65.6035L120.404 65.5946C120.461 65.5805 120.517 65.5664 120.568 65.5536C120.63 65.5396 120.69 65.5242 120.741 65.5089C120.851 65.4807 120.961 65.4513 121.071 65.418L121.089 65.4129C121.476 65.3016 121.862 65.1711 122.236 65.0252C122.616 64.8806 122.99 64.7169 123.353 64.5403L123.354 64.5396C123.381 64.5257 123.408 64.5119 123.436 64.4981L123.498 64.4686C123.601 64.4175 123.702 64.365 123.801 64.31C123.838 64.2908 123.873 64.2716 123.909 64.2524L123.954 64.2294L124.035 64.184C124.061 64.1697 124.086 64.1554 124.111 64.1411V64.1654L124.768 63.747C128.834 61.1625 131.261 56.793 131.261 52.0564V31.6609H124.111ZM117.014 58.7302C113.251 58.7302 110.191 55.7362 110.191 52.0564C110.191 48.3766 113.251 45.3818 117.014 45.3818C120.776 45.3818 123.838 48.3766 123.838 52.0564C123.838 55.7362 120.776 58.7302 117.014 58.7302Z" fill="black"/>
<path fill-rule="evenodd" clip-rule="evenodd" d="M68.6242 48.7785L68.7509 48.706L68.7127 48.5744L68.6503 48.3314C68.3862 47.3377 68.0116 46.3683 67.5419 45.4452C67.1485 44.6949 66.6898 43.9642 66.1812 43.2851C64.6902 41.3572 62.7184 39.8408 60.4897 38.9142C58.2966 38.0056 55.891 37.6815 53.5463 37.9654C51.8794 38.1672 50.2815 38.6684 48.7856 39.4539C42.8222 42.5917 39.9172 49.5654 41.8915 56.0496C42.147 56.8741 42.4667 57.6676 42.8498 58.4303C43.3298 59.3407 43.8947 60.2068 44.5528 61.0058C46.5616 63.4053 49.3534 65.0851 52.4153 65.7162C53.8712 66.0196 55.3551 66.0787 56.8439 65.8988C58.5223 65.696 60.1322 65.2046 61.6174 64.4204C64.4391 62.9272 66.6361 60.5412 67.9059 57.6529L62.212 54.7861C61.5555 56.4726 60.3027 57.8892 58.6893 58.7351C57.8723 59.1635 56.992 59.4414 56.081 59.5515C54.1916 59.7812 52.3174 59.279 50.7754 58.1537L59.6475 53.501L68.6242 48.7785ZM47.6456 52.5732C47.5279 51.1055 47.8186 49.6567 48.4987 48.3555C49.215 46.9806 50.3231 45.8661 51.7022 45.1408C52.5307 44.7099 53.3996 44.4339 54.3105 44.3236C56.378 44.0732 58.4596 44.7105 60.0505 46.0554L47.6456 52.5732Z" fill="black"/>
<path d="M41.9639 38.2676L41.6409 39.0567L31.1247 64.6517C30.8427 65.3388 30.17 65.7834 29.4115 65.7834H24.3066L13.3221 39.0576L13 38.2676H20.1881L20.3375 38.6255L27.4819 56.0114L34.6256 38.6273L34.7758 38.2676H41.9639Z" fill="black"/>
<path d="M99.7076 65.7872V51.821C99.7076 49.8386 99.2963 47.9319 98.4829 46.1456C97.659 44.3585 96.4776 42.768 94.9634 41.4393C92.5036 39.2605 89.3076 37.9966 85.978 37.8763C85.7881 37.8657 85.61 37.8657 85.4436 37.8657H85.4318C85.2655 37.8657 85.086 37.8657 84.8974 37.8763C81.5679 37.9966 78.3719 39.2605 75.9113 41.4393C74.3965 42.768 73.2166 44.3585 72.3922 46.1456C71.5793 47.9319 71.1672 49.8386 71.1672 51.821V65.7872H78.3274V51.9299C78.3274 51.7018 78.3378 51.4724 78.3601 51.2443C78.495 49.6092 79.218 48.0844 80.41 46.908C80.8881 46.439 81.412 46.0469 81.9909 45.7535C82.1913 45.633 82.3917 45.5356 82.6039 45.4485C82.8148 45.3501 83.027 45.2734 83.2379 45.2086C83.4605 45.132 83.6832 45.0778 83.9059 45.0341C84.1285 44.9797 84.3525 44.9468 84.5857 44.9251C84.7416 44.9032 84.8974 44.8926 85.0533 44.8926C85.1751 44.8707 85.31 44.8707 85.4318 44.8707H85.5982C85.6768 44.8707 85.7553 44.8707 85.8222 44.8926C85.978 44.8926 86.1326 44.9032 86.2898 44.9251C86.5229 44.9468 86.7456 44.9904 86.9682 45.0341C87.183 45.0741 87.379 45.1323 87.5806 45.1921L87.6362 45.2086C87.8484 45.2846 88.0593 45.3607 88.2715 45.4485C88.4837 45.5459 88.6828 45.6445 88.8845 45.7535C89.4857 46.0802 90.0306 46.5044 90.5205 47.0054C91.6561 48.1715 92.3581 49.6528 92.514 51.2443C92.5363 51.4289 92.5481 51.6249 92.5481 51.821V65.7872H99.7076Z" fill="black"/>
<path d="M140.513 65.5686C143.161 65.5686 145.307 63.4694 145.307 60.879C145.307 58.2898 143.161 56.1894 140.513 56.1894C137.867 56.1894 135.721 58.2898 135.721 60.879C135.721 63.4694 137.867 65.5686 140.513 65.5686Z" fill="black"/>
</svg>
