<svg width="218" height="80" viewBox="0 0 218 80" fill="none" xmlns="http://www.w3.org/2000/svg">
<path d="M59.7237 65.6879V63.2212C59.7177 62.9967 59.791 62.7771 59.9313 62.5997L74.8523 43.7598C74.9215 43.6918 74.9412 43.6336 74.8523 43.585C74.8351 43.5596 74.8115 43.5391 74.7838 43.5255C74.756 43.5119 74.7251 43.5056 74.6942 43.5073H60.4945C60.4234 43.517 60.351 43.5103 60.283 43.4879C60.215 43.4654 60.1532 43.4278 60.1024 43.3779C60.0517 43.3281 60.0134 43.2673 59.9905 43.2005C59.9677 43.1336 59.9609 43.0625 59.9708 42.9926V40.6716C59.9609 40.6018 59.9677 40.5306 59.9905 40.4638C60.0134 40.3969 60.0517 40.3362 60.1024 40.2863C60.1532 40.2364 60.215 40.1988 60.283 40.1764C60.351 40.1539 60.4234 40.1473 60.4945 40.1569H78.8839C78.955 40.1473 79.0274 40.1539 79.0954 40.1764C79.1635 40.1988 79.2253 40.2364 79.276 40.2863C79.3268 40.3362 79.365 40.3969 79.3879 40.4638C79.4107 40.5306 79.4175 40.6018 79.4076 40.6716V43.148C79.4114 43.3692 79.3382 43.5851 79.2001 43.7598L64.1704 62.5997C64.0914 62.6677 64.0815 62.7357 64.1111 62.7842C64.129 62.8089 64.1527 62.8289 64.1803 62.8425C64.2079 62.856 64.2384 62.8627 64.2692 62.8619H78.8839C78.955 62.8522 79.0274 62.8589 79.0954 62.8813C79.1635 62.9038 79.2253 62.9414 79.276 62.9913C79.3268 63.0412 79.365 63.1019 79.3879 63.1688C79.4107 63.2356 79.4175 63.3068 79.4076 63.3766V65.6879C79.4175 65.7578 79.4107 65.8289 79.3879 65.8958C79.365 65.9626 79.3268 66.0233 79.276 66.0732C79.2253 66.1231 79.1635 66.1607 79.0954 66.1832C79.0274 66.2056 78.955 66.2123 78.8839 66.2026H60.287C60.213 66.2193 60.136 66.218 60.0627 66.1988C59.9894 66.1795 59.922 66.1429 59.8664 66.0921C59.8109 66.0413 59.7688 65.9779 59.7439 65.9074C59.719 65.837 59.7121 65.7616 59.7237 65.6879Z" fill="#1A2849"/>
<path d="M107.066 52.4126V54.0538C107.076 54.1236 107.069 54.1948 107.046 54.2616C107.023 54.3285 106.985 54.3892 106.934 54.4391C106.884 54.489 106.822 54.5266 106.754 54.549C106.686 54.5715 106.613 54.5781 106.542 54.5685H89.6152C89.5863 54.5651 89.5569 54.5683 89.5294 54.578C89.502 54.5877 89.4772 54.6035 89.4571 54.6243C89.4369 54.645 89.422 54.6701 89.4134 54.6975C89.4049 54.7249 89.4029 54.7539 89.4077 54.7821C89.4136 56.0056 89.5194 57.2267 89.7239 58.4336C90.0619 59.9056 90.9373 61.2047 92.1844 62.085C93.5996 63.0421 95.2895 63.5288 97.0066 63.4737C98.3641 63.5068 99.7046 63.1708 100.88 62.5026C102.006 61.8426 102.915 60.8785 103.499 59.7252C103.706 59.4241 103.953 59.3464 104.23 59.5212L106.275 60.706C106.338 60.7384 106.394 60.7831 106.439 60.8374C106.484 60.8916 106.517 60.9542 106.536 61.0215C106.556 61.0887 106.561 61.1592 106.552 61.2285C106.543 61.2978 106.519 61.3645 106.483 61.4246C105.597 63.0835 104.218 64.4383 102.53 65.3092C100.677 66.2784 98.6019 66.7664 96.5026 66.727C94.2937 66.7656 92.1231 66.1571 90.2674 64.979C88.5773 63.8221 87.3124 62.16 86.6607 60.2399C85.9193 57.9468 85.585 55.5454 85.6725 53.1409C85.6725 51.6939 85.6725 50.5189 85.7516 49.6157C85.7951 48.7886 85.9276 47.9682 86.1468 47.1685C86.6749 45.03 87.9429 43.1384 89.7338 41.8176C91.6182 40.4503 93.9142 39.7426 96.2556 39.8073C99.4374 39.8073 101.881 40.5972 103.588 42.1769C105.409 43.9756 106.538 46.3412 106.779 48.868C106.956 50.0418 107.052 51.226 107.066 52.4126ZM92.0559 44.2551C90.9154 45.136 90.128 46.3845 89.8326 47.7803C89.5603 48.9267 89.4178 50.0992 89.4077 51.2764C89.4046 51.3039 89.4078 51.3318 89.4171 51.3579C89.4264 51.3841 89.4416 51.4078 89.4615 51.4274C89.4815 51.447 89.5056 51.4619 89.5322 51.4711C89.5588 51.4802 89.5872 51.4834 89.6152 51.4803H103.202C103.231 51.485 103.261 51.4831 103.288 51.4747C103.316 51.4663 103.342 51.4516 103.363 51.4318C103.384 51.412 103.4 51.3876 103.41 51.3607C103.42 51.3337 103.423 51.3048 103.42 51.2764C103.389 50.1733 103.284 49.0734 103.103 47.9842C102.774 46.5326 101.952 45.2345 100.771 44.3036C99.499 43.3633 97.9354 42.8831 96.3445 42.9441C94.8043 42.8847 93.2901 43.3476 92.0559 44.2551Z" fill="#1A2849"/>
<path d="M131.681 42.1089C132.537 42.9156 133.208 43.8925 133.649 44.9743C134.09 46.0561 134.292 47.218 134.24 48.3824V65.6879C134.252 65.7581 134.247 65.8302 134.225 65.898C134.203 65.9659 134.164 66.0276 134.113 66.078C134.062 66.1283 133.999 66.1659 133.93 66.1876C133.861 66.2093 133.788 66.2144 133.716 66.2026H131.048C130.977 66.2123 130.905 66.2056 130.837 66.1832C130.769 66.1607 130.707 66.1231 130.656 66.0732C130.605 66.0233 130.567 65.9626 130.544 65.8958C130.521 65.8289 130.515 65.7578 130.525 65.6879V63.5805C130.525 63.5503 130.519 63.5202 130.505 63.4931C130.491 63.466 130.471 63.4427 130.446 63.4252C130.446 63.4252 130.337 63.4252 130.258 63.4252C129.352 64.4853 128.18 65.2953 126.859 65.7753C125.367 66.3196 123.786 66.5895 122.194 66.5716C119.965 66.6458 117.773 65.9937 115.959 64.7168C115.104 64.0444 114.429 63.1775 113.992 62.191C113.554 61.2045 113.368 60.1282 113.449 59.0551C113.401 57.889 113.634 56.7283 114.131 55.6682C114.627 54.608 115.372 53.6787 116.305 52.9564C118.202 51.4609 120.837 50.7131 124.21 50.7131H130.287C130.315 50.7162 130.344 50.713 130.37 50.7039C130.397 50.6947 130.421 50.6798 130.441 50.6602C130.461 50.6406 130.476 50.6169 130.486 50.5907C130.495 50.5646 130.498 50.5367 130.495 50.5092V48.5669C130.539 47.813 130.429 47.0581 130.173 46.3461C129.917 45.6342 129.519 44.9795 129.003 44.4202C128.375 43.8722 127.641 43.4554 126.844 43.195C126.047 42.9345 125.205 42.836 124.368 42.9052C122.939 42.8466 121.522 43.183 120.277 43.8764C119.775 44.1546 119.339 44.535 118.998 44.9922C118.657 45.4494 118.42 45.9728 118.301 46.5275C118.291 46.598 118.268 46.6658 118.231 46.7271C118.194 46.7884 118.145 46.8418 118.088 46.8844C118.03 46.9269 117.964 46.9576 117.893 46.9747C117.823 46.9918 117.75 46.9949 117.679 46.984L114.843 46.6246C114.467 46.5567 114.309 46.4207 114.378 46.2168C114.521 45.2566 114.876 44.339 115.419 43.5285C115.962 42.7181 116.68 42.0346 117.521 41.5262C119.555 40.2696 121.927 39.6437 124.329 39.7296C127.54 39.7491 129.961 40.5357 131.681 42.1089ZM128.272 61.9491C128.974 61.5167 129.551 60.9129 129.946 60.1964C130.341 59.4799 130.54 58.6752 130.525 57.8606V53.8498C130.528 53.8223 130.524 53.7944 130.515 53.7683C130.506 53.7421 130.491 53.7184 130.471 53.6988C130.451 53.6792 130.427 53.6643 130.4 53.6551C130.373 53.646 130.345 53.6428 130.317 53.6459H124.813C122.863 53.556 120.929 54.0395 119.26 55.0346C118.597 55.4468 118.055 56.022 117.687 56.7033C117.32 57.3847 117.14 58.1484 117.165 58.9191C117.123 59.5746 117.248 60.2299 117.527 60.8264C117.806 61.423 118.232 61.9422 118.766 62.3375C120.001 63.158 121.477 63.5572 122.965 63.4737C124.85 63.5132 126.702 62.9845 128.272 61.9588V61.9491Z" fill="#1A2849"/>
<path d="M176.068 42.1089C176.853 42.965 177.458 43.9651 177.848 45.0517C178.238 46.1384 178.406 47.2901 178.341 48.4407V65.6879C178.351 65.7578 178.344 65.8289 178.321 65.8958C178.298 65.9626 178.26 66.0233 178.209 66.0732C178.159 66.1231 178.097 66.1607 178.029 66.1832C177.961 66.2056 177.888 66.2123 177.817 66.2026H175.199C175.128 66.2123 175.055 66.2056 174.987 66.1832C174.919 66.1607 174.857 66.1231 174.807 66.0732C174.756 66.0233 174.718 65.9626 174.695 65.8958C174.672 65.8289 174.665 65.7578 174.675 65.6879V49.1787C174.718 48.3575 174.595 47.5361 174.312 46.7624C174.028 45.9887 173.591 45.2783 173.025 44.6727C172.463 44.1138 171.789 43.6764 171.045 43.3888C170.302 43.1011 169.505 42.9695 168.707 43.0023C167.88 42.9471 167.051 43.0655 166.275 43.3498C165.499 43.6341 164.793 44.0778 164.205 44.6512C163.617 45.2245 163.16 45.9145 162.864 46.6751C162.569 47.4357 162.441 48.2495 162.491 49.0622V65.6879C162.503 65.7581 162.498 65.8302 162.476 65.898C162.454 65.9659 162.416 66.0276 162.364 66.078C162.313 66.1283 162.25 66.1659 162.181 66.1876C162.112 66.2093 162.039 66.2144 161.967 66.2026H159.299C159.228 66.2123 159.156 66.2056 159.088 66.1832C159.02 66.1607 158.958 66.1231 158.907 66.0732C158.857 66.0233 158.818 65.9626 158.795 65.8958C158.773 65.8289 158.766 65.7578 158.776 65.6879V49.1787C158.859 47.5257 158.277 45.9068 157.155 44.6727C156.591 44.1095 155.912 43.6697 155.162 43.3819C154.413 43.0941 153.611 42.9647 152.807 43.0023C151.994 42.9639 151.181 43.0906 150.419 43.3746C149.657 43.6587 148.963 44.0939 148.38 44.6533C147.818 45.2437 147.383 45.9391 147.099 46.6981C146.816 47.4571 146.69 48.2643 146.73 49.0719V65.6879C146.74 65.7578 146.733 65.8289 146.71 65.8958C146.688 65.9626 146.649 66.0233 146.599 66.0732C146.548 66.1231 146.486 66.1607 146.418 66.1832C146.35 66.2056 146.278 66.2123 146.206 66.2026H143.538C143.467 66.2144 143.394 66.2093 143.325 66.1876C143.256 66.1659 143.193 66.1283 143.142 66.078C143.09 66.0276 143.052 65.9659 143.03 65.898C143.008 65.8302 143.003 65.7581 143.015 65.6879V40.6716C143.005 40.6018 143.012 40.5306 143.035 40.4638C143.057 40.3969 143.096 40.3362 143.146 40.2863C143.197 40.2364 143.259 40.1988 143.327 40.1764C143.395 40.1539 143.467 40.1473 143.538 40.1569H146.206C146.278 40.1473 146.35 40.1539 146.418 40.1764C146.486 40.1988 146.548 40.2364 146.599 40.2863C146.649 40.3362 146.688 40.3969 146.71 40.4638C146.733 40.5306 146.74 40.6018 146.73 40.6716V42.7304C146.726 42.7585 146.731 42.7872 146.746 42.8119C146.76 42.8366 146.782 42.8558 146.809 42.8664C146.859 42.8664 146.918 42.8664 146.997 42.7887C147.759 41.7896 148.784 41.0139 149.961 40.5454C151.216 40.0425 152.559 39.7884 153.914 39.7976C155.539 39.7501 157.148 40.1253 158.578 40.8853C159.879 41.5958 160.917 42.6942 161.542 44.022C161.612 44.1968 161.701 44.1968 161.799 44.022C162.522 42.6604 163.658 41.5538 165.05 40.8561C166.529 40.1345 168.162 39.7715 169.813 39.7976C170.962 39.7335 172.112 39.9059 173.189 40.3039C174.266 40.7019 175.247 41.3167 176.068 42.1089Z" fill="#1A2849"/>
<path d="M190.604 64.7168C188.778 63.4344 187.448 61.5827 186.829 59.463C186.278 57.3978 186.031 55.2653 186.098 53.1312C186.029 51.013 186.275 48.8962 186.829 46.848C187.423 44.7478 188.735 42.9129 190.545 41.6525C192.479 40.3325 194.791 39.6522 197.145 39.7102C199.44 39.6631 201.689 40.3442 203.559 41.6525C205.346 42.9088 206.649 44.7229 207.254 46.7994C207.815 48.863 208.061 50.9967 207.985 53.1312C208.065 55.2658 207.819 57.4002 207.254 59.463C206.672 61.579 205.367 63.4339 203.559 64.7168C201.635 65.9587 199.383 66.6204 197.081 66.6204C194.779 66.6204 192.528 65.9587 190.604 64.7168ZM201.385 62.0656C202.588 61.1412 203.438 59.8441 203.796 58.385C204.159 56.6739 204.318 54.9271 204.27 53.1798C204.316 51.4385 204.177 49.6972 203.855 47.9842C203.485 46.5227 202.626 45.2261 201.414 44.3036C200.155 43.3739 198.611 42.8943 197.037 42.9441C195.49 42.8795 193.97 43.3479 192.738 44.2681C191.505 45.1884 190.639 46.5028 190.288 47.9842C189.957 49.6961 189.814 51.438 189.863 53.1798C189.814 54.9248 189.957 56.6699 190.288 58.385C190.615 59.8494 191.459 61.1529 192.669 62.0656C193.936 63.0072 195.488 63.5031 197.076 63.4737C198.634 63.5034 200.155 63.0063 201.385 62.0656Z" fill="#1A2849"/>
<path d="M48.943 39.7105C46.2635 38.2855 43.4115 37.1989 40.4548 36.4766C40.31 36.4391 40.1591 36.4305 40.0109 36.4514C39.8627 36.4723 39.7203 36.5223 39.5921 36.5984C39.464 36.6745 39.3527 36.7752 39.265 36.8944C39.1772 37.0136 39.1147 37.149 39.0813 37.2924C39.0417 37.4977 39.0417 37.7086 39.0813 37.9139C39.5394 39.3557 39.6448 40.8834 39.3887 42.3728C39.1326 43.8621 38.5224 45.271 37.6076 46.4848C36.6928 47.6986 35.4994 48.683 34.1244 49.3579C32.7494 50.0328 31.2317 50.3791 29.6948 50.3687C28.1579 50.3582 26.6452 49.9913 25.2799 49.2978C23.9145 48.6044 22.735 47.6038 21.8374 46.3778C20.9398 45.1517 20.3494 43.7346 20.1143 42.2419C19.8791 40.7492 20.0059 39.2231 20.4843 37.7877C20.5321 37.6506 20.5515 37.5056 20.5414 37.3612C20.5313 37.2167 20.492 37.0756 20.4258 36.9463C20.3595 36.8169 20.2676 36.7019 20.1555 36.6079C20.0434 36.5139 19.9133 36.4429 19.7729 36.399C19.6681 36.3554 19.5556 36.333 19.4418 36.333C19.3281 36.333 19.2155 36.3554 19.1108 36.399C16.1181 37.1424 13.2378 38.2688 10.5436 39.7493C10.3755 39.8514 10.2371 39.9945 10.1419 40.1647C10.0467 40.3348 9.99781 40.5263 10.0001 40.7205C10.0001 52.374 19.8816 62.6777 21.8579 64.6005C22.5199 65.2512 23.1029 65.8241 23.6069 66.3583C25.8895 68.7278 27.184 70 29.763 70C32.3421 70 34.1702 68.1937 36.5417 65.7465C36.8777 65.3774 37.2532 65.0084 37.6682 64.6005C41.2453 60.9199 49.526 51.2669 49.526 40.7205C49.5347 40.5154 49.4846 40.312 49.3816 40.1335C49.2785 39.955 49.1265 39.8084 48.943 39.7105Z" fill="#0168D1"/>
<path d="M29.763 48.5381C34.1289 48.5381 37.6682 45.0597 37.6682 40.769C37.6682 36.4783 34.1289 33 29.763 33C25.3971 33 21.8579 36.4783 21.8579 40.769C21.8579 45.0597 25.3971 48.5381 29.763 48.5381Z" fill="#0168D1"/>
</svg>
