<svg width="84" height="80" viewBox="0 0 84 80" fill="none" xmlns="http://www.w3.org/2000/svg">
<path fill-rule="evenodd" clip-rule="evenodd" d="M47.3874 58.1028L45.0581 66.004H32.937L48.592 20.7607H63.7654L79.5466 66.004H67.2851L64.9713 58.1028H47.3874ZM49.9702 49.3379H62.4055L56.2088 28.1724L49.9702 49.3379Z" fill="#28163D"/>
<path fill-rule="evenodd" clip-rule="evenodd" d="M11 21.2678V66.4767H28.7646C33.8766 66.4767 44.2972 64.6745 45.0543 55.7973C45.905 45.8257 39.8394 42.6983 36.1356 42.162C38.0568 41.6818 44.2901 40.0729 44.2901 32.1405C44.2901 25.6144 38.4466 21.2678 29.5158 21.2678H11ZM22.3689 47.2289V57.1973H28.5746C30.6061 57.1973 34.8132 56.8263 34.8132 52.2272C34.8132 47.6249 30.5134 47.2289 28.5746 47.2289H22.3689ZM22.3689 30.0732V39.3215H27.6371C29.3618 39.3215 32.9332 38.9753 32.9332 34.7067C32.9332 30.4412 29.2831 30.0732 27.6371 30.0732H22.3689Z" fill="#523D70"/>
<path fill-rule="evenodd" clip-rule="evenodd" d="M58.7061 58.0975C56.4344 62.6842 52.2211 66.6971 48.0441 68.1283C42.3699 70.074 35.7743 69.678 30.9548 66.3822C33.6461 66.1452 36.9721 65.4468 39.7235 63.8565C40.9446 64.2276 42.3237 64.4428 43.8779 64.4646C49.355 64.5457 52.9004 61.5149 54.8235 58.0975H58.7061ZM56.0104 49.3357C51.3549 40.7828 41.4274 44.9579 31.5117 44.7241C30.873 47.9762 30.7902 52.5878 32.2564 56.5384C30.9951 57.1184 29.5419 57.2026 28.5781 57.2026H24.8613C20.6626 37.4746 50.3037 4.05819 52.7322 16.9764C42.2431 20.5465 34.0862 33.5707 31.7733 42.8938C40.6517 43.4612 52.3271 35.2389 59.0457 46.3299C59.6206 47.2809 60.0015 48.2911 60.2129 49.3357H56.0104Z" fill="#BB90EE"/>
</svg>
