<svg width="384" height="31" viewBox="0 0 384 31" fill="none" xmlns="http://www.w3.org/2000/svg">
<path fill-rule="evenodd" clip-rule="evenodd" d="M230.417 30.1354C231.779 30.4973 233.201 30.6809 234.7 30.6809C236.186 30.6809 237.619 30.4973 238.982 30.1354C240.345 29.7674 241.61 29.2546 242.789 28.5889C243.963 27.9242 245.029 27.13 245.991 26.2063C246.942 25.2817 247.758 24.252 248.435 23.1173C249.106 21.9826 249.629 20.7664 250.004 19.4696C250.376 18.1728 250.565 16.8271 250.565 15.4324C250.565 13.3741 250.155 11.4411 249.333 9.63154C248.515 7.82604 247.396 6.24787 245.974 4.90215C244.557 3.55643 242.881 2.49515 240.95 1.71626C239.02 0.938393 236.938 0.54895 234.7 0.54895C233.201 0.54895 231.779 0.72736 230.417 1.08418C229.053 1.441 227.783 1.94055 226.604 2.57875C225.43 3.22204 224.359 3.99481 223.392 4.90215C222.429 5.81051 221.607 6.81573 220.937 7.91779C220.26 9.02087 219.736 10.2045 219.364 11.4687C218.989 12.7328 218.806 14.0551 218.806 15.4324C218.806 16.8271 218.989 18.1728 219.364 19.4696C219.736 20.7664 220.26 21.9826 220.937 23.1173C221.607 24.252 222.429 25.2817 223.392 26.2063C224.359 27.13 225.43 27.9242 226.604 28.5889C227.783 29.2546 229.053 29.7674 230.417 30.1354ZM239.053 28.2106C237.787 28.9029 236.333 29.2454 234.7 29.2454C233.007 29.2454 231.531 28.9029 230.255 28.2106C228.983 27.5245 227.911 26.5632 227.053 25.3306C226.193 24.098 225.55 22.6392 225.121 20.9529C224.69 19.2667 224.478 17.4265 224.478 15.4324C224.478 13.4546 224.69 11.644 225.121 9.99856C225.55 8.35311 226.193 6.93399 227.053 5.74017C227.911 4.55145 228.983 3.62168 230.255 2.95697C231.531 2.29227 233.007 1.95992 234.7 1.95992C236.333 1.95992 237.787 2.29227 239.053 2.95697C240.318 3.62168 241.384 4.55145 242.254 5.74017C243.119 6.93399 243.779 8.35311 244.223 9.99856C244.672 11.644 244.892 13.4546 244.892 15.4324C244.892 17.4265 244.672 19.2667 244.223 20.9529C243.779 22.6392 243.119 24.098 242.254 25.3306C241.384 26.5632 240.318 27.5245 239.053 28.2106Z" fill="#143641"/>
<path d="M20.809 1.20251V3.05084H5.62403V13.3619H15.7684V15.2102H5.62403V28.1485H20.809V29.9968H0.77832V1.20251H20.809Z" fill="#143641"/>
<path d="M32.768 1.20421L43.6213 24.1131L53.7443 1.20421H56.0325L42.9399 30.6796H41.6963L27.658 1.20421H32.768Z" fill="#143641"/>
<path d="M84.7322 3.05084V1.20251H64.7026V29.9968H84.7322V28.1485H69.5473V15.2102H79.6926V13.3619H69.5473V3.05084H84.7322Z" fill="#143641"/>
<path fill-rule="evenodd" clip-rule="evenodd" d="M95.0883 1.20251H105.044C106.78 1.20251 108.299 1.38908 109.608 1.76221C110.912 2.13432 112.004 2.65324 112.88 3.31794C113.756 3.98265 114.416 4.77785 114.849 5.7015C115.291 6.62617 115.508 7.63036 115.508 8.71713C115.508 9.60918 115.335 10.4441 115 11.222C114.653 11.9999 114.172 12.7023 113.551 13.3242C112.924 13.9512 112.177 14.4915 111.312 14.9564C110.442 15.4162 109.489 15.7699 108.451 16.0126L118.937 29.9968H113.318L103.319 16.4509H99.934V29.9968H95.0883V1.20251ZM99.934 15.0155H102.708C103.795 15.0155 104.801 14.8748 105.725 14.5883C106.65 14.308 107.45 13.8971 108.122 13.3619C108.797 12.8267 109.321 12.1783 109.705 11.4167C110.083 10.6542 110.273 9.80288 110.273 8.86292C110.273 8.00349 110.127 7.21747 109.824 6.50383C109.526 5.79019 109.105 5.17442 108.575 4.65551C108.034 4.13659 107.396 3.73185 106.65 3.44028C105.904 3.14769 105.082 3.0019 104.195 3.0019H99.934V15.0155Z" fill="#143641"/>
<path d="M136.904 15.7944L126.932 1.20251H121.968L133.475 18.0067V29.9968H138.32V17.5448L149.488 1.20251H146.86L136.904 15.7944Z" fill="#143641"/>
<path d="M175.564 1.20251H180.507L191.722 23.309H191.944L202.943 1.20251H207.811V29.9968H202.943V6.40698H202.777L190.971 29.9968H189.971L178.025 6.57723H177.684V29.9968H175.564V1.20251Z" fill="#143641"/>
<path d="M283.179 1.20251V3.05084H272.736V29.9968H267.896V3.05084H257.454V1.20251H283.179Z" fill="#143641"/>
<path d="M297.441 29.9958V16.1828H311.923V29.9958H316.763V1.20251H311.923V14.3345H297.441V1.20251H292.596V29.9958H297.441Z" fill="#143641"/>
<path d="M349.018 1.20251V3.05084H333.833V13.3619H343.978V15.2102H333.833V28.1485H349.018V29.9968H328.988V1.20251H349.018Z" fill="#143641"/>
<path fill-rule="evenodd" clip-rule="evenodd" d="M369.329 1.20251H359.374V29.9968H364.219V16.4509H367.604L377.603 29.9968H383.222L372.737 16.0126C373.774 15.7699 374.726 15.4162 375.597 14.9564C376.462 14.4915 377.208 13.9512 377.836 13.3242C378.458 12.7023 378.938 11.9999 379.285 11.222C379.62 10.4441 379.793 9.60918 379.793 8.71713C379.793 7.63036 379.577 6.62617 379.133 5.7015C378.701 4.77785 378.041 3.98265 377.165 3.31794C376.29 2.65324 375.196 2.13432 373.893 1.76221C372.585 1.38908 371.065 1.20251 369.329 1.20251ZM366.993 15.0155H364.219V3.0019H368.481C369.367 3.0019 370.189 3.14769 370.935 3.44028C371.681 3.73185 372.319 4.13659 372.86 4.65551C373.391 5.17442 373.812 5.79019 374.11 6.50383C374.413 7.21747 374.559 8.00349 374.559 8.86292C374.559 9.80288 374.369 10.6542 373.99 11.4167C373.607 12.1783 373.081 12.8267 372.406 13.3619C371.736 13.8971 370.935 14.308 370.011 14.5883C369.087 14.8748 368.08 15.0155 366.993 15.0155Z" fill="#143641"/>
</svg>
