<svg width="282" height="80" viewBox="0 0 282 80" fill="none" xmlns="http://www.w3.org/2000/svg">
<path fill-rule="evenodd" clip-rule="evenodd" d="M66.6362 66.5888C64.7047 66.5888 62.9218 66.1427 61.2874 65.1018C59.6531 64.2096 58.4645 62.8714 57.573 61.3844V66.1427H54.7501V32.0908H57.8702V46.9606C58.9102 45.325 60.2474 43.9867 61.7332 42.9458C63.2189 41.9049 65.0019 41.4588 67.0819 41.4588C68.7163 41.4588 70.3506 41.7562 71.6878 42.4997C73.025 43.2432 74.2136 44.1354 75.1051 45.325C75.9966 46.5146 76.7394 47.8528 77.3337 49.3398C77.7795 50.8268 78.0766 52.4625 78.0766 53.9495C78.0766 55.5851 77.7795 57.2208 77.1852 58.8565C76.5909 60.3435 75.848 61.6818 74.8079 62.8714C73.7679 64.0609 72.5793 64.9531 71.0935 65.5479C69.7563 66.2914 68.2706 66.5888 66.6362 66.5888ZM65.8933 63.7636C67.2305 63.7636 68.4191 63.4662 69.6077 63.0201C70.6478 62.4253 71.6878 61.6818 72.4307 60.7896C73.1736 59.8974 73.9165 58.8565 74.3622 57.6669C74.8079 56.4773 75.1051 55.2877 75.1051 54.0982C75.1051 52.7599 74.9565 51.5703 74.5108 50.3807C74.0651 49.1911 73.4707 48.1502 72.7279 47.258C71.8364 46.3659 70.9449 45.6224 69.7563 45.0276C68.7163 44.4328 67.5277 44.2841 66.1905 44.2841C65.299 44.2841 64.259 44.4328 63.5161 44.7302C62.6246 45.0276 61.8818 45.4737 61.1389 46.0685C60.396 46.6632 59.8017 47.258 59.2074 48.0015C58.6131 48.745 58.1673 49.4885 57.8702 50.3807V57.9643C58.0188 58.8565 58.3159 59.6 58.9102 60.3435C59.5045 61.087 60.0988 61.6818 60.8417 62.2766C61.5846 62.8714 62.4761 63.1688 63.3675 63.4662C64.259 63.6149 65.1504 63.7636 65.8933 63.7636Z" fill="#6E7071"/>
<path d="M48.807 66.1428H45.9841V52.6112C45.9841 49.7859 45.5383 47.7042 44.6469 46.3659C43.7554 45.0276 42.4182 44.4328 40.6353 44.4328C39.7438 44.4328 38.8524 44.5815 37.9609 44.8789C37.0695 45.1763 36.3266 45.7711 35.7323 46.3659C34.9894 46.9607 34.3951 47.7042 33.9493 48.5964C33.355 49.4886 33.0579 50.3807 32.7607 51.4216V66.2915H29.6406V52.7599C29.6406 49.9346 29.1949 47.7042 28.3034 46.5146C27.2634 45.0276 25.9262 44.2841 24.1433 44.2841C22.3603 44.2841 20.726 44.8789 19.2402 46.2172C17.7545 47.5555 16.7144 49.1912 16.1201 51.2729V66.1428H13V41.9049H15.823V47.4068C16.863 45.4737 18.0516 44.1354 19.686 43.0945C21.3203 42.0536 23.1032 41.6075 25.0347 41.6075C27.1148 41.6075 28.7491 42.2023 29.9378 43.3919C31.1264 44.5815 31.8693 46.0685 32.1664 47.8529C34.3951 43.6893 37.5152 41.6075 41.5268 41.6075C42.864 41.6075 44.0526 41.9049 44.944 42.351C45.8355 42.7971 46.5784 43.5406 47.1727 44.4328C47.767 45.325 48.2127 46.5146 48.3613 47.7042C48.6584 49.0425 48.807 50.3807 48.807 52.0164V66.1428Z" fill="#6E7071"/>
<path fill-rule="evenodd" clip-rule="evenodd" d="M85.6541 65.9939C86.5456 66.44 87.5856 66.5887 88.7742 66.5887C90.7057 66.5887 92.4886 66.1426 94.2715 65.6965C95.9058 64.8043 97.2431 63.7634 98.4317 62.2765L98.5803 64.2095C98.5803 64.953 98.8774 65.3991 99.3232 65.8452C99.7689 66.2913 100.512 66.44 101.255 66.44C101.552 66.44 101.849 66.44 102.443 66.2913V63.466C101.7 63.466 101.255 63.0199 101.255 62.1278V51.1241C101.255 48.0014 100.363 45.6223 98.5803 43.9866C96.9459 42.3509 94.4201 41.4587 91.4486 41.4587C88.6256 41.4587 85.5055 42.4996 82.3854 44.5814L83.574 46.6631C84.9112 45.771 86.2484 45.0275 87.5856 44.5814C88.9228 44.1353 90.26 43.8379 91.4486 43.8379C93.6773 43.8379 95.3116 44.5814 96.5002 45.771C97.6888 46.9605 98.2831 48.7449 98.2831 50.8267V52.7598C97.9982 52.6783 97.7132 52.5856 97.4221 52.491C96.6509 52.2402 95.8367 51.9755 94.8659 51.8676C93.6773 51.7189 92.3401 51.5702 91.1514 51.5702C89.6657 51.5702 88.1799 51.8676 86.9913 52.165C85.6541 52.4624 84.6141 53.0572 83.7226 53.652C82.8311 54.3955 82.0883 55.1389 81.6425 56.0311C81.1968 56.9233 80.8996 57.9642 80.8996 59.0051C80.8996 60.046 81.0482 61.0869 81.4939 61.9791C81.7911 62.8713 82.3854 63.6147 83.1283 64.3582C83.8712 65.1017 84.7626 65.5478 85.6541 65.9939ZM94.123 63.3173C92.6372 63.9121 91.1514 64.2095 89.5171 64.2095C88.6256 64.2095 87.8828 64.0608 87.1399 63.7634C86.5456 63.466 85.8027 63.0199 85.3569 62.5739C84.9112 62.1278 84.4655 61.533 84.1683 60.9382C83.8712 60.3434 83.7226 59.5999 83.7226 58.8564C83.7226 57.3694 84.4655 56.0311 85.8027 55.1389C87.2885 54.2468 89.0714 53.8007 91.3 53.8007C92.3686 53.8007 93.3171 53.9208 94.3613 54.0531C94.4787 54.068 94.5972 54.083 94.7173 54.0981C95.9059 54.2468 96.9459 54.5441 97.986 54.9902V59.0051C97.986 59.3025 97.986 59.5999 97.8374 59.8973C97.6888 60.1947 97.5403 60.4921 97.2431 60.7895C96.5002 61.8304 95.4602 62.7226 94.123 63.3173Z" fill="#6E7071"/>
<path d="M146.274 32.0906V38.3359H152.514V32.0906H146.274Z" fill="#C72035"/>
<path d="M146.274 41.756V66.1425H152.514V41.756H146.274Z" fill="#C72035"/>
<path d="M134.387 44.2838V66.1424L140.776 65.9937V32.9827H133.942L124.284 51.8674L114.478 32.9827H107.644V66.1424H114.032V44.2838L122.501 60.6406H125.919L134.387 44.2838Z" fill="#C72035"/>
<path d="M166.629 66.5885C164.548 66.5885 162.617 66.2911 160.685 65.5476C158.754 64.9529 157.12 63.912 155.634 62.7224L158.011 58.8562C159.497 59.8971 160.983 60.6406 162.32 61.2354C163.806 61.8302 165.143 61.9789 166.48 61.9789C167.669 61.9789 168.709 61.6815 169.452 61.2354C170.194 60.7893 170.492 60.0458 170.492 59.3023C170.492 58.4101 170.046 57.8153 169.303 57.3692C168.411 56.9232 167.074 56.4771 165.143 56.031C164.139 55.7571 163.248 55.4832 162.468 55.2437C161.978 55.0931 161.533 54.9562 161.131 54.8414C159.943 54.3953 159.051 53.9492 158.457 53.5031C157.714 53.057 157.268 52.4622 156.971 51.7187C156.674 51.1239 156.525 50.2317 156.525 49.3395C156.525 48.15 156.822 46.9604 157.268 45.9195C157.565 44.8786 158.308 44.1351 159.2 43.3916C160.091 42.6481 161.131 42.202 162.32 41.7559C163.508 41.3098 164.697 41.1611 166.183 41.1611C167.966 41.1611 169.749 41.4585 171.383 41.9046C173.017 42.4994 174.503 43.2429 175.84 44.4325L173.315 48.15C172.126 47.2578 170.937 46.5143 169.749 46.0682C168.56 45.6221 167.371 45.4734 166.331 45.4734C165.291 45.4734 164.4 45.6221 163.657 46.0682C162.914 46.5143 162.617 47.2578 162.617 48.15C162.617 48.596 162.766 48.8934 162.914 49.1908C163.063 49.4882 163.36 49.7856 163.657 49.9343C163.838 49.9946 164.018 50.0792 164.209 50.1685C164.488 50.2996 164.789 50.4407 165.143 50.5291C165.348 50.5805 165.571 50.6495 165.811 50.724C166.268 50.8654 166.788 51.0266 167.371 51.1239C169.006 51.57 170.492 52.0161 171.68 52.4622C172.869 52.9083 173.909 53.3544 174.652 53.9492C175.395 54.544 175.989 55.1388 176.286 55.8823C176.583 56.6258 176.88 57.5179 176.88 58.5588C176.88 60.938 175.989 62.8711 174.206 64.2094C171.977 65.845 169.6 66.5885 166.629 66.5885Z" fill="#C72035"/>
<path d="M182.972 65.5476C184.904 66.2911 186.835 66.5885 188.915 66.5885C191.887 66.5885 194.412 65.845 196.641 64.2094C198.424 62.8711 199.315 60.938 199.315 58.5588C199.315 57.5179 199.018 56.6258 198.721 55.8823C198.424 55.1388 197.83 54.544 197.087 53.9492C196.344 53.3544 195.304 52.9083 194.115 52.4622C192.927 52.0161 191.441 51.57 189.807 51.1239C189.223 51.0266 188.703 50.8654 188.246 50.724C188.006 50.6495 187.783 50.5805 187.578 50.5291C187.224 50.4407 186.923 50.2996 186.644 50.1685C186.453 50.0792 186.273 49.9946 186.092 49.9343C185.795 49.7856 185.498 49.4882 185.349 49.1908C185.201 48.8934 185.052 48.596 185.052 48.15C185.052 47.2578 185.349 46.5143 186.092 46.0682C186.835 45.6221 187.726 45.4734 188.767 45.4734C189.807 45.4734 190.995 45.6221 192.184 46.0682C193.372 46.5143 194.561 47.2578 195.75 48.15L198.275 44.4325C196.938 43.2429 195.452 42.4994 193.818 41.9046C192.184 41.4585 190.401 41.1611 188.618 41.1611C187.132 41.1611 185.944 41.3098 184.755 41.7559C183.566 42.202 182.526 42.6481 181.635 43.3916C180.743 44.1351 180 44.8786 179.555 45.9195C179.109 46.9604 178.812 48.15 178.812 49.3395C178.812 50.2317 178.96 51.1239 179.258 51.7187C179.555 52.4622 180 53.057 180.743 53.5031C181.338 53.9492 182.229 54.3953 183.418 54.8414C183.819 54.9562 184.265 55.0931 184.755 55.2437C185.534 55.4832 186.426 55.7571 187.429 56.031C189.361 56.4771 190.698 56.9232 191.589 57.3692C192.332 57.8153 192.778 58.4101 192.778 59.3023C192.778 60.0458 192.481 60.7893 191.738 61.2354C190.995 61.6815 189.955 61.9789 188.767 61.9789C187.429 61.9789 186.092 61.8302 184.606 61.2354C183.269 60.6406 181.783 59.8971 180.298 58.8562L177.92 62.7224C179.406 63.912 181.041 64.9529 182.972 65.5476Z" fill="#C72035"/>
<path d="M201.99 38.3359V32.0906H208.23V38.3359H201.99Z" fill="#C72035"/>
<path d="M201.99 66.1425V41.756H208.23V66.1425H201.99Z" fill="#C72035"/>
<path fill-rule="evenodd" clip-rule="evenodd" d="M219.076 65.5476C220.71 66.2911 222.493 66.5885 224.425 66.5885C226.505 66.5885 228.288 66.2911 229.774 65.5476C231.408 64.8042 232.745 63.912 233.785 62.7224C234.825 61.5328 235.717 60.1945 236.311 58.7075C236.905 57.2205 237.202 55.5849 237.202 53.9492C237.202 52.1648 236.905 50.5291 236.311 49.0421C235.717 47.5552 234.825 46.2169 233.785 45.0273C232.745 43.8377 231.408 42.9455 229.774 42.202C228.139 41.4585 226.356 41.1611 224.425 41.1611C222.493 41.1611 220.71 41.4585 219.076 42.202C217.442 42.9455 216.105 43.8377 215.065 45.0273C214.025 46.2169 213.133 47.5552 212.539 49.0421C211.944 50.6778 211.647 52.3135 211.647 53.9492C211.647 55.5849 211.944 57.2205 212.539 58.7075C213.133 60.1945 214.025 61.5328 215.065 62.7224C216.105 63.912 217.442 64.8042 219.076 65.5476ZM218.482 56.9232C218.185 56.031 218.036 54.9901 218.036 53.9492C218.036 53.2045 218.188 52.4598 218.329 51.7696L218.331 51.762C218.386 51.4901 218.44 51.2268 218.482 50.9752C218.779 50.083 219.225 49.1908 219.819 48.596C220.413 48.0013 221.156 47.5552 221.899 47.1091C222.642 46.663 223.533 46.5143 224.425 46.5143C225.316 46.5143 226.208 46.8117 226.951 47.1091C227.842 47.4065 228.436 48.0013 229.031 48.596C229.625 49.3395 230.071 50.083 230.368 50.9752C230.665 51.8674 230.814 52.9083 230.814 53.9492C230.814 54.9901 230.665 56.031 230.368 56.9232C230.071 57.8153 229.625 58.7075 229.031 59.3023C228.436 59.8971 227.694 60.4919 226.951 60.7893C226.208 61.2354 225.316 61.3841 224.425 61.3841C223.533 61.3841 222.642 61.0867 221.899 60.7893C221.008 60.4919 220.413 59.8971 219.819 59.3023C219.225 58.5588 218.779 57.8153 218.482 56.9232Z" fill="#C72035"/>
<path d="M263.203 66.1424H256.963V52.4622C256.963 50.5291 256.666 49.0421 255.923 48.1499C255.18 47.2577 254.289 46.8116 253.1 46.8116C252.506 46.8116 251.912 46.9603 251.169 47.2577C251.052 47.3161 250.93 47.3744 250.805 47.4339C250.294 47.6775 249.744 47.94 249.386 48.2986C248.792 48.7447 248.346 49.3395 247.9 49.9343C247.454 50.5291 247.157 51.2726 246.86 52.0161V66.2911H240.62V41.7559H246.266V46.2168C247.157 44.7299 248.494 43.3916 250.129 42.6481C251.763 41.7559 253.695 41.3098 255.923 41.3098C257.409 41.3098 258.746 41.6072 259.638 42.202C260.529 42.7968 261.272 43.5403 261.866 44.4325C262.461 45.3246 262.758 46.3655 262.906 47.5551C263.055 48.7447 263.203 49.9343 263.203 50.9752V66.1424Z" fill="#C72035"/>
<path d="M267.958 59.4511V66.1425H273.01V59.4511H267.958Z" fill="#C72035"/>
</svg>
