<svg width="174" height="80" viewBox="0 0 174 80" fill="none" xmlns="http://www.w3.org/2000/svg">
<path fill-rule="evenodd" clip-rule="evenodd" d="M46.8473 66H44.5337L37.0592 49.4439L29.6101 66H27.2711L17 38.549H23.6864L29.1525 54.6271L35.8135 38.549H38.1016L44.9914 54.7277L50.8896 38.549H57.1438L46.8473 66ZM75.349 62.8045C74.7727 63.7439 73.7685 64.5113 72.3363 65.1068C70.9041 65.7023 69.4083 66 67.849 66C64.9168 66 62.6118 65.2745 60.9338 63.8235C59.2559 62.3726 58.4169 60.3136 58.4169 57.6465C58.4169 54.5264 59.5991 52.0858 61.9635 50.3245C64.3279 48.5632 67.688 47.6826 72.0439 47.6826C72.7897 47.6826 73.671 47.8084 74.688 48.06C74.688 44.8897 72.6626 43.3045 68.6117 43.3045C66.2219 43.3045 64.2219 43.6987 62.6118 44.4871L61.2389 39.6058C63.4253 38.5658 66.027 38.0458 69.0439 38.0458C73.1965 38.0458 76.2388 38.981 78.171 40.8513C80.1032 42.7216 81.0693 46.2651 81.0693 51.4819V57.2439C81.0693 60.8336 81.7981 63.0897 83.2557 64.0123C82.7303 64.9181 82.1456 65.4758 81.5015 65.6855C80.8574 65.8952 80.1201 66 79.2896 66C78.3744 66 77.5524 65.6645 76.8235 64.9935C76.0947 64.3226 75.6032 63.5929 75.349 62.8045ZM74.7388 52.8155C73.6541 52.5974 72.8405 52.4884 72.2982 52.4884C67.2812 52.4884 64.7728 54.1155 64.7728 57.3697C64.7728 59.7852 66.188 60.9929 69.0185 60.9929C72.8321 60.9929 74.7388 59.1058 74.7388 55.3316V52.8155ZM88.3169 28.5097L94.6728 27V57.2942C94.6728 60.6155 95.6727 62.5948 97.6727 63.2323C96.6897 65.0774 95.0117 66 92.6389 66C89.7575 66 88.3169 64.0207 88.3169 60.0619V28.5097ZM119.285 65.4968L111.276 53.2935L108.225 56.489V65.4968H101.869V28.5097L108.225 27V48.8903L117.302 38.549H124.954L115.751 48.7645L126.835 65.4968H119.285ZM130.778 28.5097L137.134 27V57.2942C137.134 60.6155 138.134 62.5948 140.134 63.2323C139.151 65.0774 137.473 66 135.1 66C132.219 66 130.778 64.0207 130.778 60.0619V28.5097ZM149.314 28.1071C150.331 28.1071 151.199 28.4635 151.92 29.1765C152.64 29.8894 153 30.749 153 31.7555C153 32.7619 152.64 33.6216 151.92 34.3345C151.199 35.0474 150.331 35.4039 149.314 35.4039C148.297 35.4039 147.428 35.0474 146.708 34.3345C145.987 33.6216 145.627 32.7619 145.627 31.7555C145.627 30.749 145.987 29.8894 146.708 29.1765C147.428 28.4635 148.297 28.1071 149.314 28.1071ZM146.034 65.4968V43.7071H142.551V38.549H152.466V65.4968H146.034Z" fill="#435468"/>
</svg>
