<svg width="24" height="24" viewBox="0 0 24 24" fill="none" xmlns="http://www.w3.org/2000/svg">
<path d="M23.8194 8.21053V12C23.8194 13.0274 23.2998 13.9874 22.2604 14.88C21.2381 15.7221 19.858 16.3958 18.12 16.9011C16.331 17.4232 14.3971 17.6842 12.3184 17.6842C10.2397 17.6842 8.30584 17.4232 6.51678 16.9011C4.77884 16.3958 3.39873 15.7221 2.37641 14.88C1.33705 13.9874 0.817383 13.0274 0.817383 12V8.21053C0.817383 9.2379 1.33705 10.1979 2.37641 11.0905C3.39873 11.9326 4.77884 12.6063 6.51678 13.1116C8.30584 13.6337 10.2397 13.8947 12.3184 13.8947C14.3971 13.8947 16.331 13.6337 18.12 13.1116C19.858 12.6063 21.2381 11.9326 22.2604 11.0905C23.2998 10.1979 23.8194 9.2379 23.8194 8.21053ZM0.817383 14.5263C0.817383 15.5537 1.33705 16.5137 2.37641 17.4063C3.39873 18.2484 4.77884 18.9221 6.51678 19.4274C8.30584 19.9495 10.2397 20.2105 12.3184 20.2105C14.3971 20.2105 16.331 19.9495 18.12 19.4274C19.858 18.9221 21.2381 18.2484 22.2604 17.4063C23.2998 16.5137 23.8194 15.5537 23.8194 14.5263V18.3158C23.8194 19.3432 23.2998 20.3032 22.2604 21.1958C21.2381 22.0379 19.858 22.7116 18.12 23.2168C16.331 23.7389 14.3971 24 12.3184 24C10.2397 24 8.30584 23.7389 6.51678 23.2168C4.77884 22.7116 3.39873 22.0379 2.37641 21.1958C1.33705 20.3032 0.817383 19.3432 0.817383 18.3158V14.5263ZM12.3184 11.3684C10.2397 11.3684 8.30584 11.1074 6.51678 10.5853C4.77884 10.08 3.39873 9.40632 2.37641 8.56421C1.33705 7.67157 0.817383 6.71158 0.817383 5.68421C0.817383 4.65684 1.33705 3.69685 2.37641 2.80421C3.39873 1.9621 4.77884 1.28842 6.51678 0.783158C8.30584 0.26105 10.2397 0 12.3184 0C14.3971 0 16.331 0.26105 18.12 0.783158C19.858 1.28842 21.2381 1.9621 22.2604 2.80421C23.2998 3.69685 23.8194 4.65684 23.8194 5.68421C23.8194 6.71158 23.2998 7.67157 22.2604 8.56421C21.2381 9.40632 19.858 10.08 18.12 10.5853C16.331 11.1074 14.3971 11.3684 12.3184 11.3684Z" fill="#FA4748"/>
</svg>
