<svg width="19" height="24" viewBox="0 0 19 24" fill="none" xmlns="http://www.w3.org/2000/svg">
<path d="M10.5727 19.31V21.6404H17.5639V23.9708H10.5727C9.93572 23.9708 9.38809 23.7416 8.92977 23.2833C8.47146 22.825 8.24231 22.2774 8.24231 21.6404V19.31H4.74672C3.90778 19.31 3.13099 19.1003 2.41633 18.6808C1.70167 18.2613 1.13462 17.6943 0.715143 16.9796C0.295671 16.265 0.0859375 15.4882 0.0859375 14.6492V9.98844H18.7291V14.6492C18.7291 15.4882 18.5193 16.265 18.0999 16.9796C17.6804 17.6943 17.1133 18.2613 16.3987 18.6808C15.684 19.1003 14.9072 19.31 14.0683 19.31H10.5727ZM14.0683 5.32765H17.5639C17.8901 5.32765 18.1659 5.44029 18.3912 5.66556C18.6164 5.89083 18.7291 6.16659 18.7291 6.49285V8.82324H0.0859375V6.49285C0.0859375 6.16659 0.198572 5.89083 0.423844 5.66556C0.649116 5.44029 0.924876 5.32765 1.25113 5.32765H4.74672V0.66687H7.07711V5.32765H11.7379V0.66687H14.0683V5.32765ZM9.4075 15.2318C9.73376 15.2318 10.0095 15.1192 10.2348 14.8939C10.4601 14.6686 10.5727 14.3929 10.5727 14.0666C10.5727 13.7404 10.4601 13.4646 10.2348 13.2393C10.0095 13.0141 9.73376 12.9014 9.4075 12.9014C9.08125 12.9014 8.80549 13.0141 8.58021 13.2393C8.35494 13.4646 8.24231 13.7404 8.24231 14.0666C8.24231 14.3929 8.35494 14.6686 8.58021 14.8939C8.80549 15.1192 9.08125 15.2318 9.4075 15.2318Z" fill="#FA4748"/>
</svg>
