<svg width="29" height="24" viewBox="0 0 29 24" fill="none" xmlns="http://www.w3.org/2000/svg">
<path d="M15.6968 18.5867V21.3333H21.965V24H6.92145V21.3333H13.1896V18.5867C11.5348 18.3556 10.0305 17.7422 8.67653 16.7467C7.35604 15.7511 6.31972 14.4978 5.56754 12.9867C4.79864 11.4222 4.4142 9.76001 4.4142 8V0H24.4722V8C24.4722 9.76001 24.0878 11.4222 23.3189 12.9867C22.5667 14.4978 21.5304 15.7511 20.2099 16.7467C18.856 17.7422 17.3516 18.3556 15.6968 18.5867ZM0.65332 2.66667H3.16057V8H0.65332V2.66667ZM25.7259 2.66667H28.2331V8H25.7259V2.66667Z" fill="#FA4748"/>
</svg>
