<svg width="31" height="66" viewBox="0 0 31 66" fill="none" xmlns="http://www.w3.org/2000/svg">
<path fill-rule="evenodd" clip-rule="evenodd" d="M31 46.2303C31 43.8955 30.0941 41.6552 28.4512 40.0045C26.8236 38.3523 24.5973 37.4246 22.2942 37.4246C18.0411 37.4246 12.9589 37.4246 8.70584 37.4246C6.40272 37.4246 4.17636 38.3523 2.54883 40.0045C0.921298 41.6552 0 43.8955 0 46.2303C0 49.7148 0 53.7112 0 57.1957C0 59.5306 0.921298 61.7708 2.54883 63.4215C4.17636 65.0722 6.40272 66 8.70584 66C12.9589 66 18.0411 66 22.2942 66C24.5973 66 26.8236 65.0722 28.4512 63.4215C30.0941 61.7708 31 59.5306 31 57.1957C31 53.7112 31 49.7148 31 46.2303ZM31 8.80422C31 6.46935 30.0941 4.22912 28.4512 2.57842C26.8236 0.927722 24.5973 0 22.2942 0C18.0411 0 12.9589 0 8.70584 0C6.40272 0 4.17636 0.927722 2.54883 2.57842C0.921298 4.22912 0 6.46935 0 8.80422C0 12.2887 0 16.2851 0 19.7696C0 22.1044 0.921298 24.3447 2.54883 25.9954C4.17636 27.6476 6.40272 28.5753 8.70584 28.5753C12.9589 28.5753 18.0411 28.5753 22.2942 28.5753C24.5973 28.5753 26.8236 27.6476 28.4512 25.9954C30.0941 24.3447 31 22.1044 31 19.7696C31 16.2851 31 12.2887 31 8.80422Z" fill="#13C58F"/>
</svg>
