<svg width="57" height="61" viewBox="0 0 57 61" fill="none" xmlns="http://www.w3.org/2000/svg">
<path fill-rule="evenodd" clip-rule="evenodd" d="M57 43.5524C57 40.4227 54.5036 37.8838 51.4246 37.8838C40.5193 37.8838 16.4791 37.8838 5.57383 37.8838C2.49485 37.8838 0 40.4227 0 43.5524C0 47.135 0 51.7473 0 55.3299C0 58.4612 2.49485 61 5.57383 61C16.4791 61 40.5193 61 51.4246 61C54.5036 61 57 58.4612 57 55.3299C57 51.7473 57 47.135 57 43.5524ZM57 5.66858C57 2.53732 54.5036 0 51.4246 0C40.5193 0 16.4791 0 5.57383 0C2.49485 0 0 2.53732 0 5.66858C0 9.25116 0 13.8635 0 17.4461C0 20.5774 2.49485 23.1146 5.57383 23.1146C16.4791 23.1146 40.5193 23.1146 51.4246 23.1146C54.5036 23.1146 57 20.5774 57 17.4461C57 13.8635 57 9.25116 57 5.66858Z" fill="#FF870F"/>
</svg>
