<svg width="76" height="54" viewBox="0 0 76 54" fill="none" xmlns="http://www.w3.org/2000/svg">
<path fill-rule="evenodd" clip-rule="evenodd" d="M13.1758 29.1095C13.1696 28.8071 12.7042 28.5217 12.7042 28.5217C12.7042 28.5217 5.66558 29.6635 2.43541 25.8539C0.967989 24.1212 0 21.9842 0 19.662C0 16.1965 0 12.2219 0 8.75638C0 6.43422 0.876758 4.20618 2.43541 2.56447C3.9956 0.922765 6.11088 0 8.31587 0C12.8325 0 18.9342 0 23.4509 0C30.6086 0 33.0301 11.4735 33.0301 19.5586C33.0301 33.5563 28.1036 50.748 6.56394 53.9743C5.46145 54.1394 4.39765 53.4945 4.03737 52.4422C3.3369 50.4317 2.2204 47.1791 1.55241 45.2304C1.4117 44.8215 1.45044 44.3725 1.65764 43.9929C1.86484 43.6133 2.22198 43.3387 2.64257 43.2338C9.51886 41.4871 13.3459 36.0282 13.1758 29.1095ZM56.1474 29.1095C56.1396 28.8071 55.6758 28.5217 55.6758 28.5217C55.6758 28.5217 48.6356 29.6635 45.4069 25.8539C43.938 24.1212 42.9715 21.9842 42.9715 19.662C42.9715 16.1965 42.9715 12.2219 42.9715 8.75638C42.9715 6.43422 43.8483 4.20618 45.4069 2.56447C46.9671 0.922765 49.0824 0 51.2874 0C55.8041 0 61.9056 0 66.4223 0C73.58 0 76 11.4735 76 19.5586C76 33.5563 71.0751 50.748 49.5355 53.9743C48.433 54.1394 47.3691 53.4945 47.0073 52.4422C46.3084 50.4317 45.1919 47.1791 44.5239 45.2304C44.3832 44.8215 44.4219 44.3725 44.6291 43.9929C44.8363 43.6133 45.1935 43.3387 45.6141 43.2338C52.4904 41.4871 56.3174 36.0282 56.1474 29.1095Z" fill="#5A9AF9"/>
</svg>
