<svg width="190" height="70" viewBox="0 0 190 70" fill="none" xmlns="http://www.w3.org/2000/svg">
<path fill-rule="evenodd" clip-rule="evenodd" d="M156.956 51.5699H161.07V14H156.956V28.1504C155.716 26.5599 154.42 25.4081 153.124 24.7499C151.771 24.0918 150.475 23.7627 149.178 23.7627C147.262 23.7627 145.628 24.1466 144.219 24.9145C142.81 25.6275 141.626 26.6696 140.668 27.931C139.71 29.2473 138.977 30.7282 138.526 32.4284C138.019 34.1835 137.793 35.9935 137.793 37.9131C137.793 39.8327 138.019 41.6427 138.526 43.3977C139.033 45.098 139.766 46.6337 140.724 47.8952C141.682 49.2115 142.866 50.2536 144.331 50.9666C145.74 51.7344 147.375 52.1183 149.291 52.1183C150.7 52.1183 152.109 51.7344 153.462 50.9666C154.871 50.1439 155.998 48.9921 156.956 47.4564V51.5699ZM156.392 33.5254C156.731 34.7868 156.956 36.1032 156.956 37.4743V38.1873C156.956 39.6133 156.787 40.9845 156.449 42.246C156.111 43.5074 155.66 44.6044 154.983 45.5368C154.363 46.4692 153.574 47.237 152.616 47.7855C151.715 48.3339 150.644 48.6082 149.46 48.6082C148.22 48.6082 147.149 48.3339 146.248 47.7306C145.289 47.1822 144.5 46.4143 143.824 45.4271C143.204 44.4398 142.697 43.2881 142.359 42.0266C142.021 40.7103 141.851 39.3391 141.851 37.9131C141.851 36.4871 142.021 35.1159 142.359 33.7996C142.697 32.5381 143.204 31.3864 143.824 30.454C144.5 29.4667 145.289 28.6989 146.248 28.1504C147.149 27.6019 148.22 27.3277 149.46 27.3277C150.587 27.3277 151.658 27.6019 152.56 28.1504C153.518 28.644 154.251 29.4119 154.927 30.3443C155.547 31.2218 156.054 32.3187 156.392 33.5254Z" fill="#5A9AF9"/>
<path fill-rule="evenodd" clip-rule="evenodd" d="M39.3464 42.2992C38.8955 41.0926 38.6701 39.8311 38.6701 38.6245H59.1289V37.0339C59.1289 35.1691 58.8471 33.414 58.2835 31.8235C57.7199 30.1781 56.9309 28.8069 55.86 27.6003C54.7892 26.3937 53.4929 25.4613 52.0275 24.8031C50.5058 24.0901 48.8149 23.761 46.9551 23.761C45.0388 23.761 43.2916 24.145 41.7699 24.9128C40.1918 25.6258 38.8955 26.6679 37.7683 27.9294C36.6975 29.1909 35.852 30.6717 35.2884 32.3171C34.6685 33.9625 34.3867 35.7176 34.3867 37.5275C34.3867 39.4472 34.6685 41.2571 35.2884 43.0122C35.852 44.8221 36.6975 46.3578 37.8247 47.6741C38.8955 49.0453 40.2482 50.0874 41.7699 50.9101C43.348 51.6779 45.0388 52.1167 47.0114 52.1167C48.3077 52.1167 49.6604 51.8973 50.9003 51.5134C52.1402 51.1295 53.3238 50.5262 54.3946 49.8132C55.4091 49.0453 56.3109 48.1129 57.0436 47.016C57.7763 45.919 58.2835 44.6576 58.6217 43.2864H54.9019C53.6056 46.8514 50.9566 48.6614 47.0114 48.6614C45.8278 48.6614 44.7006 48.3323 43.7425 47.7838C42.728 47.1805 41.8263 46.4127 41.0936 45.4803C40.3609 44.5479 39.7409 43.5058 39.3464 42.2992ZM54.2819 32.3171C54.6764 33.3592 54.9019 34.4013 54.9582 35.5531H38.6701C38.6701 34.511 38.8955 33.4689 39.29 32.4816C39.7409 31.4944 40.3045 30.6169 40.9808 29.849C41.7135 29.0812 42.5589 28.4778 43.5171 27.9842C44.4752 27.5455 45.546 27.3261 46.6733 27.3261C47.9132 27.3261 49.0404 27.5455 50.0549 27.9294C51.0694 28.3682 51.9148 28.9715 52.6475 29.7393C53.3801 30.4523 53.8874 31.3299 54.2819 32.3171Z" fill="#5A9AF9"/>
<path d="M68.9202 24.3095H64.8059V51.5682H68.9202V34.8949C68.9202 34.0722 69.0893 33.2495 69.4838 32.3171C69.8783 31.4396 70.4419 30.6169 71.1183 29.849C71.7946 29.136 72.5836 28.5327 73.5418 28.0391C74.4435 27.5455 75.458 27.3261 76.5289 27.3261C77.0925 27.3261 77.6561 27.3809 78.276 27.5455C78.896 27.7648 79.4596 28.0391 79.9669 28.4779C80.4741 28.9166 80.8686 29.5199 81.2068 30.2329C81.545 31.0008 81.714 31.9332 81.714 33.0301V51.5682H85.772V34.5658C85.772 33.5786 85.9974 32.5913 86.3919 31.7138C86.8428 30.8363 87.4064 30.0684 88.0827 29.4102C88.7591 28.7521 89.5481 28.2585 90.3935 27.8745C91.2389 27.4906 92.0843 27.3261 92.9297 27.3261C93.6061 27.3261 94.226 27.4358 94.9024 27.6003C95.5223 27.7648 96.1423 28.0391 96.6495 28.4779C97.1568 28.9166 97.5513 29.5199 97.8895 30.2329C98.2276 31.0008 98.3403 31.9332 98.3403 33.0301V51.5682H102.455V31.9332C102.455 30.7266 102.229 29.6845 101.778 28.6972C101.384 27.6552 100.764 26.8325 99.9748 26.0646C99.2421 25.3516 98.284 24.8031 97.2695 24.3644C96.1986 23.9804 95.0151 23.761 93.7752 23.761C92.9861 23.761 92.1971 23.8707 91.3517 24.0353C90.5063 24.2547 89.7172 24.5289 88.9282 24.9128C88.1391 25.3516 87.4064 25.8452 86.6737 26.4485C85.9974 27.1067 85.3774 27.8745 84.8139 28.6972C83.7994 26.8873 82.6721 25.6258 81.4322 24.858C80.1923 24.145 78.896 23.761 77.487 23.761C76.8107 23.761 76.078 23.8707 75.2889 24.0353C74.5563 24.1998 73.7672 24.4741 73.0345 24.858C72.2455 25.2419 71.5128 25.7355 70.7801 26.3388C70.1038 26.9421 69.4838 27.6552 68.9202 28.5327V24.3095Z" fill="#5A9AF9"/>
<path fill-rule="evenodd" clip-rule="evenodd" d="M112.307 38.6245C112.307 39.8311 112.532 41.0926 112.983 42.2992C113.378 43.5058 113.998 44.5479 114.73 45.4803C115.463 46.4127 116.365 47.1805 117.379 47.7838C118.337 48.3323 119.465 48.6614 120.648 48.6614C124.593 48.6614 127.242 46.8514 128.539 43.2864H132.258C131.92 44.6576 131.413 45.919 130.68 47.016C129.948 48.1129 129.046 49.0453 128.031 49.8132C126.961 50.5262 125.777 51.1295 124.537 51.5134C123.297 51.8973 121.944 52.1167 120.648 52.1167C118.676 52.1167 116.985 51.6779 115.407 50.9101C113.885 50.0874 112.532 49.0453 111.461 47.6741C110.334 46.3578 109.489 44.8221 108.925 43.0122C108.305 41.2571 108.023 39.4472 108.023 37.5275C108.023 35.7176 108.305 33.9625 108.925 32.3171C109.489 30.6717 110.334 29.1909 111.405 27.9294C112.532 26.6679 113.829 25.6258 115.407 24.9128C116.928 24.145 118.676 23.761 120.592 23.761C122.452 23.761 124.143 24.0901 125.664 24.8031C127.13 25.4613 128.426 26.3937 129.497 27.6003C130.568 28.8069 131.357 30.1781 131.92 31.8235C132.484 33.414 132.766 35.1691 132.766 37.0339V38.6245H112.307ZM128.595 35.5531C128.539 34.4013 128.313 33.3592 127.919 32.3171C127.524 31.3299 127.017 30.4523 126.284 29.7393C125.552 28.9715 124.706 28.3682 123.692 27.9294C122.677 27.5455 121.55 27.3261 120.31 27.3261C119.183 27.3261 118.112 27.5455 117.154 27.9842C116.196 28.4778 115.35 29.0812 114.618 29.849C113.941 30.6169 113.378 31.4944 112.927 32.4816C112.532 33.4689 112.307 34.511 112.307 35.5531H128.595Z" fill="#5A9AF9"/>
<path d="M177.995 46.6284L185.773 24.3059H190L178.164 57.4881C177.77 58.5301 177.319 59.4077 176.812 60.1755C176.304 60.8885 175.797 61.4919 175.234 61.9855C174.67 62.4242 174.106 62.7533 173.486 62.9727C172.923 63.1921 172.359 63.2469 171.796 63.2469C171.288 63.2469 170.837 63.2469 170.33 63.1921C169.948 63.1456 169.525 63.0203 169.062 62.883C168.979 62.8583 168.894 62.8332 168.809 62.8082V59.3528C169.09 59.4625 169.428 59.5722 169.879 59.6819C170.33 59.7916 170.781 59.8465 171.232 59.8465C171.739 59.8465 172.134 59.6819 172.528 59.3528C172.923 59.0238 173.317 58.5301 173.712 57.872C174.05 57.2138 174.445 56.3911 174.839 55.4039C174.996 54.9455 175.165 54.4399 175.347 53.8979C175.556 53.2726 175.781 52.5989 176.023 51.8937L165.709 24.3059H170.161L177.995 46.6284Z" fill="#5A9AF9"/>
<path d="M16.1145 17.8242H17.7332C18.7972 17.8242 19.7881 17.998 20.705 18.3463C21.6226 18.6946 22.4162 19.1811 23.0857 19.8058C23.7553 20.431 24.2783 21.167 24.6542 22.0155C25.0301 22.8635 25.2184 23.7871 25.2184 24.7869C25.2184 25.8049 25.0166 26.751 24.6131 27.6258C24.2095 28.5006 23.6634 29.2684 22.9752 29.9288C22.2876 30.5897 21.4941 31.1074 20.5951 31.482C19.6962 31.8572 18.742 32.0448 17.7332 32.0448H12.9634V35.5527H17.7332C19.0171 35.5527 20.1088 35.7222 21.0077 36.0617C21.9067 36.4007 22.636 36.8471 23.1956 37.4005C23.7553 37.9539 24.1588 38.5836 24.4068 39.2889C24.6542 39.9937 24.7782 40.7034 24.7782 41.418V47.3629C24.7782 47.631 24.7872 47.9475 24.8058 48.3139C24.8239 48.6797 24.8605 49.0592 24.9157 49.452C24.9704 49.8447 25.0487 50.2242 25.1496 50.59C25.2505 50.9558 25.3925 51.2822 25.5763 51.5674H30.0068C29.6585 50.9427 29.3693 50.2511 29.1399 49.492C28.9106 48.7335 28.7962 47.9524 28.7962 47.1489V41.4981C28.7962 40.6771 28.7274 39.8736 28.5893 39.0876C28.4518 38.3022 28.2044 37.5749 27.8465 36.9053C27.4886 36.2356 26.9932 35.6465 26.3603 35.1376C25.7273 34.6291 24.9157 34.2496 23.9249 33.9995C24.8058 33.5174 25.5853 32.9464 26.2639 32.2855C26.943 31.6252 27.5072 30.8974 27.9564 30.1032C28.4061 29.3085 28.7454 28.4649 28.9748 27.572C29.2042 26.6797 29.3186 25.7692 29.3186 24.8407C29.3186 23.5732 29.0667 22.3057 28.5623 21.0376C28.0573 19.7701 27.3144 18.632 26.3326 17.6234C25.3514 16.6148 24.1402 15.7932 22.7002 15.1597C21.2602 14.5257 19.6043 14.2087 17.7332 14.2087H16.1145V17.8242Z" fill="#5A9AF9"/>
<path d="M0 32.023C1.05705 31.836 2.45043 31.3217 3.26724 30.4801C4.08405 29.6384 4.46843 28.0955 4.46843 26.5992L3.89186 19.8662C3.89186 17.9492 4.46843 16.5465 5.52548 15.6113C6.63057 14.6762 8.16809 14.2086 10.1861 14.2086H13.0209V17.8089H10.1861C8.84076 17.8089 8.12005 18.557 8.12005 19.9597L8.69662 26.1784C8.69662 27.8617 8.40833 30.2463 7.78371 31.4152C7.15909 32.6309 5.9579 33.4257 4.27624 33.8466V33.9401C5.9579 34.3141 7.15909 35.1558 7.78371 36.3247C8.40833 37.5404 8.69662 38.9898 8.69662 40.6731L8.12005 46.471C8.12005 47.8269 8.84076 48.3412 10.1861 48.3412H13.0209V52.0818H10.1861C8.16809 52.0818 6.63057 51.6142 5.52548 50.6791C4.46843 49.7439 3.89186 48.388 3.89186 46.5177L4.46843 40.2523C4.46843 38.756 4.08405 37.9612 3.26724 37.1196C2.45043 36.2779 1.05705 35.7168 0 35.5298V32.023Z" fill="#FA4748"/>
</svg>
