<svg width="30" height="55" viewBox="0 0 30 55" fill="none" xmlns="http://www.w3.org/2000/svg">
<path d="M27.8487 26.8998C27.8487 25.8281 26.9834 24.9563 25.9078 24.9563C24.8321 24.9563 23.9616 25.8241 23.9616 26.9024V35.042C23.9616 36.1071 24.8334 36.9882 25.9117 36.9882C26.9821 36.9882 27.8526 36.1071 27.8526 35.042V26.8892H27.8394L27.8487 26.8998ZM5.81907 25.3284L5.82433 37.952C5.82433 39.1158 6.75007 40.0428 7.89277 40.0428H9.29058V44.3559C9.29058 45.4342 10.1585 46.3047 11.2236 46.3047C12.2887 46.3047 13.1526 45.4368 13.1697 44.3743V40.0612H15.7904V44.3743C15.7904 45.4565 16.6583 46.3244 17.7234 46.3244C18.8057 46.3244 19.6722 45.4565 19.6722 44.3651V40.052H21.0897C22.2338 40.052 23.1582 39.1184 23.1582 37.977V25.3139L5.76253 25.3258L5.81513 25.3284H5.81907ZM18.5058 21.4755C18.0982 21.4755 17.7695 21.1468 17.7695 20.7392C17.7695 20.3381 18.0982 20.0054 18.5058 20.0028C18.9135 20.0028 19.2422 20.3381 19.2422 20.7392C19.2422 21.1468 18.9135 21.4755 18.5058 21.4755ZM10.5372 21.4755C10.1295 21.4755 9.80078 21.1468 9.80078 20.7392C9.80078 20.3355 10.1295 20.0054 10.5372 20.0054C10.9448 20.0054 11.2735 20.3407 11.2735 20.7549C11.2735 21.1692 10.9803 21.4755 10.5621 21.4755H10.5372ZM20.1482 15.2005C20.2271 15.0625 20.1666 14.9034 20.0483 14.8258C19.9115 14.7666 19.7537 14.8061 19.6748 14.9441L18.2941 17.4426C17.1527 16.91 15.8536 16.6141 14.4939 16.6141C13.1342 16.6141 11.8403 16.8968 10.691 17.407L9.33134 14.9047C9.26165 14.7758 9.09465 14.7272 8.96578 14.7995C8.83428 14.8587 8.78694 15.0362 8.86058 15.1545L10.215 17.6201C7.54562 18.9968 5.74412 21.6176 5.74412 24.6288H23.27C23.27 21.6176 21.4619 19.0639 18.7951 17.6871L20.1482 15.2005ZM3.1063 24.947C2.03198 24.947 1.16016 25.8215 1.16016 26.8971V35.0394C1.16016 36.1177 2.03329 36.9855 3.11156 36.9855C4.18194 36.9855 5.05376 36.1177 5.05376 35.0394V26.8998C5.05376 25.8281 4.18589 24.9563 3.12077 24.9563L3.1063 24.947Z" fill="#A4C639"/>
</svg>
