<svg width="38" height="55" viewBox="0 0 38 55" fill="none" xmlns="http://www.w3.org/2000/svg">
<path d="M10.8747 29.6268C10.8747 30.059 10.9213 30.4093 11.0029 30.6663C11.0961 30.9232 11.2127 31.2036 11.3758 31.5072C11.4341 31.6007 11.4574 31.6941 11.4574 31.7759C11.4574 31.8927 11.3875 32.0094 11.236 32.1262L10.5018 32.6168C10.3969 32.6869 10.292 32.7219 10.1988 32.7219C10.0822 32.7219 9.9657 32.6635 9.84916 32.5584C9.686 32.3832 9.54615 32.1963 9.42961 32.0094C9.31307 31.8109 9.19653 31.589 9.06834 31.3204C8.15933 32.3949 7.01723 32.9321 5.64206 32.9321C4.66312 32.9321 3.8823 32.6518 3.31125 32.0912C2.7402 31.5306 2.44885 30.7831 2.44885 29.8487C2.44885 28.8559 2.79847 28.0501 3.50937 27.4427C4.22026 26.8354 5.16424 26.5317 6.36461 26.5317C6.76084 26.5317 7.16873 26.5667 7.59993 26.6251C8.03113 26.6835 8.47398 26.777 8.94015 26.8821V26.0295C8.94015 25.1418 8.75368 24.5228 8.39241 24.1607C8.01948 23.7987 7.39016 23.6235 6.4928 23.6235C6.08491 23.6235 5.66536 23.6702 5.23416 23.7753C4.80297 23.8804 4.38342 24.0089 3.97553 24.1724C3.78907 24.2542 3.64922 24.3009 3.56764 24.3242C3.48606 24.3476 3.42779 24.3593 3.38117 24.3593C3.21802 24.3593 3.13644 24.2425 3.13644 23.9972V23.4249C3.13644 23.238 3.15975 23.0979 3.21802 23.0161C3.27629 22.9344 3.38117 22.8526 3.54433 22.7709C3.95222 22.5606 4.44169 22.3854 5.01274 22.2453C5.58379 22.0934 6.1898 22.0234 6.83077 22.0234C8.2176 22.0234 9.2315 22.3387 9.88412 22.9694C10.5251 23.6001 10.8514 24.5578 10.8514 25.8426V29.6268H10.8747ZM6.14318 31.4021C6.52776 31.4021 6.924 31.332 7.34354 31.1919C7.76309 31.0517 8.13602 30.7948 8.45068 30.4444C8.63714 30.2225 8.77699 29.9772 8.84691 29.6969C8.91684 29.4166 8.96345 29.0779 8.96345 28.6808V28.1902C8.62549 28.1085 8.26421 28.0384 7.89128 27.9917C7.51835 27.9449 7.15708 27.9216 6.7958 27.9216C6.01499 27.9216 5.44394 28.0734 5.05935 28.3888C4.67477 28.7041 4.48831 29.1479 4.48831 29.7319C4.48831 30.2809 4.62816 30.6897 4.91951 30.97C5.1992 31.262 5.60709 31.4021 6.14318 31.4021ZM15.5014 32.6635C15.2916 32.6635 15.1517 32.6285 15.0585 32.5467C14.9653 32.4766 14.8837 32.3131 14.8138 32.0912L12.0751 23.0628C12.0052 22.8293 11.9702 22.6774 11.9702 22.5957C11.9702 22.4088 12.0634 22.3037 12.2499 22.3037H13.392C13.6134 22.3037 13.7649 22.3387 13.8465 22.4205C13.9397 22.4905 14.0096 22.6541 14.0796 22.876L16.0374 30.6079L17.8555 22.876C17.9137 22.6424 17.9837 22.4905 18.0769 22.4205C18.1701 22.3504 18.3333 22.3037 18.5431 22.3037H19.4754C19.6968 22.3037 19.8483 22.3387 19.9415 22.4205C20.0348 22.4905 20.1164 22.6541 20.163 22.876L22.0043 30.7013L24.0205 22.876C24.0904 22.6424 24.172 22.4905 24.2535 22.4205C24.3468 22.3504 24.4983 22.3037 24.708 22.3037H25.7919C25.9783 22.3037 26.0832 22.3971 26.0832 22.5957C26.0832 22.6541 26.0716 22.7125 26.0599 22.7825C26.0483 22.8526 26.0249 22.9461 25.9783 23.0745L23.1697 32.1029C23.0998 32.3365 23.0182 32.4883 22.925 32.5584C22.8317 32.6285 22.6802 32.6752 22.4821 32.6752H21.4799C21.2584 32.6752 21.1069 32.6402 21.0137 32.5584C20.9205 32.4766 20.8389 32.3248 20.7923 32.0912L18.9859 24.5578L17.1912 32.0795C17.1329 32.3131 17.063 32.465 16.9698 32.5467C16.8765 32.6285 16.7134 32.6635 16.5036 32.6635H15.5014ZM30.4768 32.9789C29.8708 32.9789 29.2648 32.9088 28.6821 32.7686C28.0994 32.6285 27.6449 32.4766 27.3419 32.3014C27.1554 32.1963 27.0272 32.0795 26.9806 31.9744C26.934 31.8693 26.9107 31.7525 26.9107 31.6474V31.0517C26.9107 30.8064 27.0039 30.6897 27.1787 30.6897C27.2486 30.6897 27.3185 30.7013 27.3885 30.7247C27.4584 30.748 27.5633 30.7948 27.6798 30.8415C28.0761 31.0167 28.5073 31.1568 28.9618 31.2503C29.4279 31.3437 29.8824 31.3904 30.3486 31.3904C31.0828 31.3904 31.6538 31.262 32.0501 31.005C32.4463 30.748 32.6561 30.3743 32.6561 29.8954C32.6561 29.5684 32.5512 29.2998 32.3414 29.0779C32.1317 28.8559 31.7354 28.6574 31.1644 28.4705L29.4745 27.9449C28.6238 27.6763 27.9945 27.2792 27.6099 26.7536C27.2253 26.2397 27.0272 25.6674 27.0272 25.0601C27.0272 24.5695 27.1321 24.1374 27.3419 23.7636C27.5516 23.3899 27.8313 23.0628 28.1809 22.8059C28.5306 22.5373 28.9268 22.3387 29.393 22.1986C29.8591 22.0584 30.3486 22 30.8614 22C31.1178 22 31.3858 22.0117 31.6422 22.0467C31.9102 22.0818 32.155 22.1285 32.3997 22.1752C32.6328 22.2336 32.8542 22.292 33.064 22.3621C33.2738 22.4321 33.4369 22.5022 33.5534 22.5723C33.7166 22.6657 33.8331 22.7592 33.9031 22.8643C33.973 22.9577 34.008 23.0862 34.008 23.2497V23.7987C34.008 24.0439 33.9147 24.1724 33.7399 24.1724C33.6467 24.1724 33.4952 24.1257 33.2971 24.0323C32.6328 23.7286 31.8869 23.5768 31.0595 23.5768C30.3952 23.5768 29.8708 23.6819 29.5095 23.9038C29.1482 24.1257 28.9618 24.4644 28.9618 24.9433C28.9618 25.2703 29.0783 25.5506 29.3114 25.7725C29.5445 25.9944 29.9757 26.2163 30.5933 26.4149L32.2482 26.9405C33.0873 27.2091 33.6933 27.5829 34.0546 28.0617C34.4158 28.5406 34.5907 29.0895 34.5907 29.6969C34.5907 30.1991 34.4858 30.6546 34.2877 31.0517C34.0779 31.4488 33.7982 31.7992 33.4369 32.0795C33.0756 32.3715 32.6444 32.5818 32.1433 32.7336C31.6189 32.8971 31.0711 32.9789 30.4768 32.9789Z" fill="#252F3E"/>
<path fill-rule="evenodd" clip-rule="evenodd" d="M32.6794 38.6552C28.8452 41.4933 23.2746 43 18.4848 43C11.772 43 5.72361 40.5122 1.15523 36.3776C0.793959 36.0506 1.12027 35.6068 1.55147 35.8637C6.49278 38.7369 12.5878 40.4772 18.8927 40.4772C23.1464 40.4772 27.8196 39.5895 32.12 37.7675C32.761 37.4755 33.3087 38.188 32.6794 38.6552Z" fill="#FF9900"/>
<path fill-rule="evenodd" clip-rule="evenodd" d="M34.2759 36.8333C33.7865 36.2026 31.0361 36.5296 29.7891 36.6814C29.4162 36.7281 29.3579 36.4011 29.6959 36.1558C31.8868 34.6141 35.4879 35.058 35.9075 35.5719C36.327 36.0974 35.7909 39.7064 33.7398 41.435C33.4252 41.7037 33.1222 41.5635 33.262 41.2131C33.7282 40.0568 34.7654 37.4523 34.2759 36.8333Z" fill="#FF9900"/>
</svg>
