<svg width="28" height="55" viewBox="0 0 28 55" fill="none" xmlns="http://www.w3.org/2000/svg">
<path d="M18.476 24.2806L15.0755 27.4468L11.919 21.0773L13.5496 17.4149C13.9617 16.6843 14.6358 16.6747 15.0479 17.4149L18.476 24.2806Z" fill="#FFA000"/>
<path d="M15.0777 27.4456L2.35788 39.2763L11.9211 21.0774L15.0777 27.4456Z" fill="#F57F17"/>
<path d="M22.2053 19.4385C22.8146 18.8582 23.4417 19.0539 23.6002 19.8782L26.907 39.1164L15.9392 45.701C15.5546 45.916 14.5346 46.0001 14.5346 46.0001C14.5346 46.0001 13.6069 45.887 13.2513 45.6913L2.35788 39.2763L22.2053 19.4385Z" fill="#FFCA28"/>
<path d="M11.9211 21.0774L2.35788 39.2763L6.61986 12.6761C6.77975 11.8518 7.24703 11.7677 7.66881 12.4983L11.9211 21.0774Z" fill="#FFA000"/>
</svg>
