<svg width="29" height="55" viewBox="0 0 29 55" fill="none" xmlns="http://www.w3.org/2000/svg">
<path d="M18.56 24.2806L15.1595 27.4467L12.003 21.0772L13.6336 17.4148C14.0458 16.6843 14.7198 16.6746 15.1319 17.4148L18.56 24.2806Z" fill="#FFA000"/>
<path d="M15.1617 27.4456L2.44189 39.2763L12.0052 21.0774L15.1617 27.4456Z" fill="#F57F17"/>
<path d="M22.2893 19.4385C22.8986 18.8582 23.5257 19.0539 23.6843 19.8782L26.991 39.1164L16.0232 45.7009C15.6386 45.9159 14.6186 46 14.6186 46C14.6186 46 13.6909 45.887 13.3353 45.6913L2.44189 39.2762L22.2893 19.4385Z" fill="#FFCA28"/>
<path d="M12.0052 21.0774L2.44189 39.2763L6.70388 12.6761C6.86377 11.8518 7.33104 11.7677 7.75283 12.4983L12.0052 21.0774Z" fill="#FFA000"/>
</svg>
