<svg width="30" height="55" viewBox="0 0 30 55" fill="none" xmlns="http://www.w3.org/2000/svg">
<path fill-rule="evenodd" clip-rule="evenodd" d="M10.4359 27.781C10.4359 27.781 9.24305 28.4597 11.2858 28.6888C13.761 28.965 15.0258 28.9252 17.7525 28.4214C17.7525 28.4214 18.4709 28.8607 19.4724 29.2411C13.3577 31.8021 5.63355 29.0927 10.4359 27.781Z" fill="#0074BD"/>
<path fill-rule="evenodd" clip-rule="evenodd" d="M9.68874 24.4384C9.68874 24.4384 8.35064 25.4068 10.3949 25.6134C13.0391 25.8802 15.1265 25.9021 18.7407 25.2222C18.7407 25.2222 19.2394 25.7174 20.0247 25.988C12.6329 28.1017 4.39983 26.1543 9.68874 24.4384Z" fill="#0074BD"/>
<path fill-rule="evenodd" clip-rule="evenodd" d="M15.9883 18.7679C17.4957 20.4642 15.593 21.9894 15.593 21.9894C15.593 21.9894 19.4184 20.0592 17.662 17.6411C16.0209 15.387 14.7627 14.2673 21.5741 10.4058C21.5742 10.4058 10.8819 13.0156 15.9883 18.7679Z" fill="#EA2D2E"/>
<path fill-rule="evenodd" clip-rule="evenodd" d="M24.0736 30.2535C24.0736 30.2535 24.9566 30.9651 23.101 31.5155C19.5724 32.5603 8.41179 32.8754 5.31191 31.5573C4.19836 31.0831 6.28756 30.426 6.9449 30.2872C7.63029 30.1422 8.02163 30.1687 8.02163 30.1687C6.78233 29.3156 0.0114675 31.8442 4.58279 32.5694C17.049 34.5447 27.3067 31.6797 24.0736 30.2535Z" fill="#0074BD"/>
<path fill-rule="evenodd" clip-rule="evenodd" d="M11.0095 20.9747C11.0095 20.9747 5.33327 22.2931 8.99949 22.7722C10.548 22.9748 13.633 22.9282 16.5087 22.6923C18.8583 22.4995 21.2162 22.0873 21.2162 22.0873C21.2162 22.0873 20.3883 22.4344 19.7889 22.8343C14.0236 24.3166 2.88825 23.6263 6.09446 22.1108C8.80472 20.829 11.0095 20.9747 11.0095 20.9747Z" fill="#0074BD"/>
<path fill-rule="evenodd" clip-rule="evenodd" d="M21.1938 26.5386C27.0541 23.5625 24.3442 20.7022 22.4529 21.0875C21.9904 21.1818 21.7829 21.2636 21.7829 21.2636C21.7829 21.2636 21.9552 20.9997 22.2833 20.8862C26.025 19.6008 28.9019 24.6783 21.0767 26.6892C21.0767 26.6892 21.1667 26.6095 21.1938 26.5386Z" fill="#0074BD"/>
<path fill-rule="evenodd" clip-rule="evenodd" d="M17.6619 4.16895C17.6619 4.16895 20.9067 7.34271 14.5834 12.2217C9.51255 16.137 13.4272 18.3686 14.5816 20.9195C11.6214 18.3089 9.45009 16.0104 10.9065 13.8715C13.0451 10.7322 18.9708 9.20969 17.6619 4.16895Z" fill="#EA2D2E"/>
<path fill-rule="evenodd" clip-rule="evenodd" d="M11.5874 34.6058C17.2113 34.9573 25.8497 34.4102 26.0542 31.8086C26.0542 31.8086 25.6612 32.7948 21.406 33.5774C16.6054 34.4609 10.6831 34.358 7.17194 33.7913C7.17194 33.7913 7.89125 34.3733 11.5874 34.6058Z" fill="#0074BD"/>
<path fill-rule="evenodd" clip-rule="evenodd" d="M25.794 39.2715H25.6227V39.1779H26.084V39.2715H25.9134V39.7394H25.7939V39.2715H25.794ZM26.715 39.2952H26.7128L26.5428 39.7393H26.4645L26.2956 39.2952H26.2938V39.7393H26.1807V39.1779H26.3466L26.503 39.5753L26.6599 39.1779H26.8249V39.7393H26.7151V39.2952H26.715Z" fill="#EA2D2E"/>
<path fill-rule="evenodd" clip-rule="evenodd" d="M10.6663 44.5461C10.136 44.9955 9.57518 45.2483 9.07177 45.2483C8.35474 45.2483 7.96582 44.8271 7.96582 44.153C7.96582 43.4234 8.38224 42.8893 10.0498 42.8893H10.6663V44.5461ZM12.1303 46.1606V41.1628C12.1303 39.8852 11.385 39.0422 9.58899 39.0422C8.54101 39.0422 7.62216 39.2955 6.87521 39.618L7.09015 40.5032C7.67847 40.292 8.43924 40.0959 9.18619 40.0959C10.221 40.0959 10.6663 40.5032 10.6663 41.3457V41.9777H10.1492C7.63542 41.9777 6.50128 42.9307 6.50128 44.3643C6.50128 45.5993 7.24879 46.3015 8.65591 46.3015C9.56018 46.3015 10.236 45.9365 10.8669 45.4022L10.9818 46.1606H12.1303Z" fill="#EA2D2E"/>
<path fill-rule="evenodd" clip-rule="evenodd" d="M17.0138 46.1605H15.1881L12.9905 39.1698H14.585L15.949 43.4654L16.2524 44.7561C16.9409 42.8893 17.4292 40.994 17.6734 39.1698H19.2241C18.8095 41.4716 18.0613 43.9985 17.0138 46.1605Z" fill="#EA2D2E"/>
<path fill-rule="evenodd" clip-rule="evenodd" d="M24.0217 44.5461C23.4896 44.9955 22.9287 45.2483 22.4267 45.2483C21.7094 45.2483 21.3204 44.8271 21.3204 44.153C21.3204 43.4234 21.7377 42.8893 23.4038 42.8893H24.0217V44.5461H24.0217ZM25.4862 46.1606V41.1628C25.4862 39.8852 24.7388 39.0422 22.9444 39.0422C21.895 39.0422 20.9764 39.2955 20.2294 39.618L20.4447 40.5032C21.0333 40.292 21.7951 40.0959 22.542 40.0959C23.5756 40.0959 24.0217 40.5032 24.0217 41.3457V41.9777H23.5045C20.9902 41.9777 19.8564 42.9307 19.8564 44.3643C19.8564 45.5993 20.6029 46.3015 22.0099 46.3015C22.9149 46.3015 23.5895 45.9365 24.2221 45.4022L24.3377 46.1606H25.4862Z" fill="#EA2D2E"/>
<path fill-rule="evenodd" clip-rule="evenodd" d="M4.89509 47.3484C4.47799 47.9442 3.80344 48.4162 3.06561 48.6823L2.34277 47.8499C2.90484 47.5677 3.38627 47.1129 3.61026 46.6894C3.80344 46.3119 3.88387 45.8267 3.88387 44.6651V36.6831H5.43974V44.5551C5.43974 46.1086 5.31289 46.7367 4.89509 47.3484Z" fill="#EA2D2E"/>
</svg>
