<svg width="52" height="55" viewBox="0 0 52 55" fill="none" xmlns="http://www.w3.org/2000/svg">
<path d="M25.6105 42.4095C39.1626 42.4095 50.1488 36.844 50.1488 29.9786C50.1488 23.1131 39.1626 17.5476 25.6105 17.5476C12.0583 17.5476 1.07214 23.1131 1.07214 29.9786C1.07214 36.844 12.0583 42.4095 25.6105 42.4095Z" fill="#6181B6"/>
<path fill-rule="evenodd" clip-rule="evenodd" d="M31.798 27.7346L30.5787 33.9964C30.5417 34.1904 30.3759 34.3196 30.1826 34.3287H27.227C27.107 34.3287 26.9964 34.2731 26.9225 34.1809C26.8485 34.0886 26.8207 33.9689 26.8394 33.8485L27.9756 27.8825C28.1235 27.1529 27.9943 26.9128 27.9295 26.848C27.8647 26.774 27.6151 26.6078 26.7658 26.6078H24.7708L23.3391 33.996C23.3022 34.1805 23.1451 34.3192 22.9511 34.3192H20.0421C19.922 34.3192 19.8111 34.2639 19.7371 34.1713C19.6632 34.0794 19.6354 33.959 19.654 33.8393L20.1804 31.1517C19.8664 31.7151 19.4505 32.232 18.9428 32.6939C18.3238 33.2756 17.6129 33.7002 16.8464 33.9499C16.089 34.1992 15.1285 34.3192 13.9835 34.3192H11.8039L11.1666 37.5797C11.1297 37.7638 10.9726 37.9029 10.7786 37.9029H7.84174C7.72132 37.9029 7.61076 37.8473 7.53682 37.755C7.46288 37.6628 7.43542 37.5427 7.45373 37.4223L10.0765 23.9664C10.1135 23.7819 10.2705 23.6432 10.4645 23.6432H16.1073C17.9083 23.6432 19.266 24.1326 20.1157 25.1114C20.5773 25.6378 20.8635 26.2843 20.9836 27.0325L22.2765 20.383C22.3135 20.1985 22.4705 20.0598 22.6645 20.0598H25.5736C25.694 20.0598 25.8046 20.1154 25.8785 20.2077C25.9524 20.2999 25.9799 20.42 25.9612 20.5401L25.3613 23.6432H27.4665C29.2214 23.6432 30.4125 23.9572 31.1146 24.6037C31.8442 25.2688 32.0751 26.3216 31.798 27.7346ZM16.0697 30.819C16.5686 30.431 16.9105 29.7662 17.095 28.8243C17.2615 27.9656 17.1967 27.3561 16.9193 27.0508C16.7253 26.8293 16.2267 26.5614 14.9891 26.5614H13.3085L12.3663 31.4007H13.6687C14.7581 31.4007 15.5619 31.207 16.0697 30.819Z" fill="white"/>
<path fill-rule="evenodd" clip-rule="evenodd" d="M39.0107 23.6432C40.8117 23.6432 42.1694 24.1326 43.019 25.1114C43.8782 26.0998 44.1461 27.4663 43.8225 29.1842C43.6838 29.8771 43.4532 30.5236 43.1299 31.1052C42.8067 31.6873 42.3726 32.2228 41.8553 32.7031C41.2367 33.2848 40.5258 33.7097 39.7589 33.9587C39.0015 34.2083 38.041 34.3284 36.896 34.3284H34.7165L34.0792 37.5885C34.0418 37.7733 33.8852 37.9117 33.6911 37.9117H30.7539C30.6342 37.9117 30.5233 37.8564 30.4493 37.7638C30.3758 37.6719 30.3476 37.5515 30.3663 37.4318L32.9803 23.9664C33.0172 23.7819 33.1743 23.6432 33.3683 23.6432H39.0107ZM38.9561 30.8186C39.4547 30.4306 39.7966 29.7659 39.9807 28.824C40.1469 27.9652 40.0917 27.3557 39.8054 27.0504C39.6117 26.829 39.1132 26.561 37.8755 26.561H36.1946L35.2527 31.4003H36.5548C37.6445 31.4003 38.448 31.2067 38.9561 30.8186Z" fill="white"/>
</svg>
