<svg width="35" height="55" viewBox="0 0 35 55" fill="none" xmlns="http://www.w3.org/2000/svg">
<path d="M17.0839 33.7939C18.7337 33.7939 20.0712 32.4565 20.0712 30.8066C20.0712 29.1567 18.7337 27.8192 17.0839 27.8192C15.434 27.8192 14.0965 29.1567 14.0965 30.8066C14.0965 32.4565 15.434 33.7939 17.0839 33.7939Z" fill="#00D8FF"/>
<path fill-rule="evenodd" clip-rule="evenodd" d="M17.0844 24.7325C21.0954 24.7325 24.8214 25.3081 27.6309 26.2753C31.0158 27.4406 33.0971 29.207 33.0971 30.8065C33.0971 32.4732 30.8914 34.3498 27.2564 35.5541C24.5082 36.4646 20.8918 36.94 17.0844 36.94C13.1808 36.94 9.48428 36.4938 6.70516 35.5441C3.18907 34.3423 1.07129 32.4415 1.07129 30.8065C1.07129 29.22 3.05842 27.4672 6.39581 26.3037C9.21572 25.3205 13.0338 24.7325 17.0839 24.7325H17.0844Z" stroke="#00D8FF" stroke-width="1.66272"/>
<path fill-rule="evenodd" clip-rule="evenodd" d="M11.7974 27.7871C13.8012 24.3125 16.1611 21.3723 18.4025 19.4217C21.103 17.0716 23.673 16.1512 25.0585 16.9502C26.5024 17.7828 27.0261 20.6311 26.2534 24.3816C25.6699 27.2171 24.2744 30.5872 22.3723 33.8855C20.4221 37.2671 18.189 40.2464 15.9782 42.1789C13.1806 44.6244 10.4759 45.5094 9.05956 44.6926C7.68518 43.9006 7.15961 41.3031 7.81893 37.8307C8.376 34.8967 9.77402 31.2955 11.7968 27.787L11.7974 27.7871Z" stroke="#00D8FF" stroke-width="1.66272"/>
<path fill-rule="evenodd" clip-rule="evenodd" d="M11.7995 33.8946C9.79008 30.4241 8.42196 26.9104 7.85089 23.9944C7.16346 20.4811 7.6495 17.7949 9.03376 16.9936C10.4763 16.1585 13.2054 17.1272 16.0688 19.6697C18.2337 21.5919 20.4568 24.4834 22.3644 27.7786C24.3202 31.1569 25.7861 34.5796 26.3563 37.46C27.0779 41.1052 26.4939 43.8903 25.0788 44.7095C23.7058 45.5043 21.1933 44.6628 18.5142 42.3573C16.2506 40.4095 13.8288 37.3997 11.7995 33.8946V33.8946Z" stroke="#00D8FF" stroke-width="1.66272"/>
</svg>
