<svg width="1121" height="664" viewBox="0 0 1121 664" fill="none" xmlns="http://www.w3.org/2000/svg">
<g clip-path="url(#clip0)">
<rect width="1120" height="664" transform="translate(0.402832)" fill="white"/>
<path d="M853.179 387.75L908.679 -80.5H1290.68V728.291H963.179L908.679 624.405L679.679 494.676L853.179 387.75Z" fill="#ACCCFB"/>
<path d="M642.679 412.243C685.299 404.586 741.479 383.527 774.413 349.068C807.347 314.608 822.845 251.432 822.845 190.171L799.598 -85.5045C799.598 -163.996 822.845 -221.428 865.465 -259.716C910.022 -298.004 972.015 -317.149 1053.38 -317.149H1167.68V-169.739H1053.38C999.136 -169.739 960.594 -181.123 970.077 -81.6756C979.561 17.7721 989.679 91.5 993.324 172.941C996.97 254.383 981.701 339.496 956.516 387.356C931.332 437.131 882.9 469.676 815.096 486.905V490.734C882.9 506.05 931.332 540.509 956.516 588.369C981.701 638.144 993.324 697.491 993.324 766.41L970.077 1003.8C970.077 1059.32 999.136 1080.37 1053.38 1080.37H1167.68V1233.53H1053.38C972.015 1233.53 910.022 1214.38 865.465 1176.09C822.845 1137.81 799.598 1082.29 799.598 1005.71L822.845 749.18C822.845 687.919 807.347 655.374 774.413 620.914C741.479 586.455 685.299 563.482 642.679 555.824V412.243Z" fill="#F1F6FF"/>
</g>
<defs>
<clipPath id="clip0">
<rect width="1120" height="664" fill="white" transform="translate(0.402832)"/>
</clipPath>
</defs>
</svg>
