<svg width="29" height="29" viewBox="0 0 29 29" fill="none" xmlns="http://www.w3.org/2000/svg">
<path d="M12.87 0.11102C19.1657 -0.716299 25.6495 3.16051 27.9441 9.06166C29.7066 13.3361 29.2405 18.4419 26.7118 22.3168C23.4289 27.6104 16.517 30.2342 10.5434 28.4357C4.20762 26.7391 -0.421649 20.3364 0.0304752 13.7858C0.226529 6.89944 6.00611 0.754491 12.87 0.11102ZM8.70685 17.0251C10.3873 17.0391 12.0678 17.0231 13.7482 17.0331C13.7602 20.0466 13.7342 23.0621 13.7622 26.0757C16.1329 21.3875 18.4775 16.6834 20.8202 11.9813C19.2037 11.9653 17.5853 11.9852 15.9668 11.9733C15.9508 8.94975 15.9708 5.92624 15.9568 2.90272C13.5362 7.60685 11.1115 12.311 8.70685 17.0251Z" fill="#009587"/>
</svg>
