<svg width="25" height="55" viewBox="0 0 25 55" fill="none" xmlns="http://www.w3.org/2000/svg">
<path d="M15.9463 16.4581C14.8812 16.1221 13.7401 15.9383 12.5609 15.9383C9.11839 15.9383 6.03728 17.4915 3.97687 19.9386L9.27054 24.3891L15.9463 16.4581Z" fill="#1A73E8"/>
<path d="M3.97731 19.9387C2.28013 21.9545 1.35045 24.5055 1.35267 27.1407C1.35267 29.2454 1.77109 30.9572 2.46212 32.485L9.27099 24.3892L3.97731 19.9387Z" fill="#EA4335"/>
<path d="M12.5616 22.8612C13.3789 22.8619 14.1788 23.0962 14.8674 23.5364C15.556 23.9765 16.1044 24.6043 16.4481 25.3457C16.7919 26.0871 16.9166 26.9114 16.8076 27.7213C16.6986 28.5312 16.3604 29.2931 15.8329 29.9173L22.5023 21.9863C21.1334 19.3488 18.7733 17.3627 15.9407 16.4644L9.27765 24.3954C9.67913 23.9146 10.1814 23.528 10.7489 23.2628C11.3164 22.9977 11.9353 22.8606 12.5616 22.8612Z" fill="#4285F4"/>
<path d="M12.5603 31.4324C10.1956 31.4324 8.27465 29.5115 8.27465 27.1467C8.27188 26.1399 8.62688 25.1647 9.27633 24.3953L2.46112 32.4911C3.62763 35.0714 5.56125 37.1445 7.55192 39.7565L15.8316 29.9172C15.4293 30.3925 14.9282 30.7743 14.3632 31.036C13.7983 31.2977 13.183 31.433 12.5603 31.4324Z" fill="#FBBC04"/>
<path d="M15.6682 42.4381C19.4086 36.5929 23.764 33.9365 23.764 27.1403C23.764 25.2765 23.3076 23.5204 22.5024 21.9735L7.55969 39.7564C8.19367 40.5869 8.83398 41.4681 9.45527 42.4444C11.7249 45.9567 11.0973 48.0614 12.5617 48.0614C14.0262 48.0614 13.3986 45.9503 15.6682 42.4381Z" fill="#34A853"/>
</svg>
