<svg width="28" height="32" viewBox="0 0 28 32" fill="none" xmlns="http://www.w3.org/2000/svg">
<path fill-rule="evenodd" clip-rule="evenodd" d="M11.2986 3.6054C11.222 3.35045 11.1815 3.08108 11.1815 2.8009C11.1815 1.25225 12.4364 0 13.9824 0C15.5292 0 16.7842 1.25225 16.7842 2.8009C16.7842 2.8027 16.7842 2.8045 16.7842 2.80631C16.7842 3.08108 16.7437 3.34685 16.668 3.5982L23.1355 7.33243C23.3184 7.13964 23.531 6.96937 23.7725 6.82883C25.113 6.05766 26.822 6.51531 27.6013 7.85675C28.3725 9.1973 27.9148 10.9072 26.5734 11.6865C26.3337 11.8243 26.0815 11.9225 25.8247 11.9829V19.4504C26.0788 19.5108 26.3274 19.6081 26.5635 19.7441C27.913 20.5126 28.3707 22.2432 27.5923 23.5739C26.8229 24.9045 25.0941 25.3685 23.7617 24.6009C23.4959 24.4477 23.2653 24.2559 23.0716 24.0369L16.6419 27.7495C16.7337 28.027 16.7842 28.3252 16.7842 28.6342C16.7815 30.1703 15.5184 31.4333 13.9824 31.4351C12.4337 31.4351 11.1815 30.1838 11.1815 28.6342C11.1815 28.3577 11.2211 28.091 11.2959 27.8387L4.83555 24.1081C4.65537 24.2973 4.44546 24.464 4.20852 24.6018C2.85897 25.373 1.14996 24.9153 0.378791 23.5739C-0.391479 22.2333 0.0661788 20.5234 1.40762 19.7441C1.64366 19.6081 1.8914 19.5108 2.14366 19.4495V11.9811C1.8878 11.9207 1.63645 11.8225 1.39771 11.6856C0.0670795 10.9162 -0.396884 9.18829 0.370683 7.85585C1.14005 6.52522 2.86798 6.06126 4.20041 6.82883C4.44095 6.96666 4.65357 7.13694 4.83555 7.32883L11.2986 3.6054ZM22.4473 22.8432C22.4626 22.9036 22.4788 22.964 22.4977 23.0225L16.0509 26.745C15.5392 26.1838 14.8013 25.8333 13.9824 25.8333C13.1923 25.8333 12.4779 26.1604 11.968 26.6874L5.49951 22.9531C5.51032 22.9171 5.51933 22.8802 5.52924 22.8432H22.4473ZM14.7671 5.49099L23.2292 20.145C23.0383 20.3252 22.8716 20.5342 22.7346 20.7712C22.5986 21.0081 22.5013 21.2568 22.4401 21.5108H5.53195C5.47068 21.2577 5.37339 21.009 5.23645 20.7721C5.09861 20.5342 4.93014 20.3234 4.74095 20.1432L13.1995 5.49189C13.4482 5.56396 13.7112 5.6027 13.9824 5.6027C13.9842 5.6027 13.986 5.6027 13.9878 5.6027C14.2572 5.6027 14.5193 5.56306 14.7671 5.49099ZM15.9932 4.74685L22.4779 8.49009C22.277 9.19369 22.3509 9.97387 22.7437 10.6586C23.1365 11.3378 23.7797 11.7919 24.4914 11.9712V19.4577C24.4563 19.4658 24.4202 19.4757 24.3851 19.4856L15.9184 4.82162C15.9437 4.7964 15.9689 4.77207 15.9932 4.74685ZM11.9725 4.75405C11.9968 4.77838 12.0211 4.8027 12.0455 4.82612L3.5842 19.4811C3.54816 19.4703 3.51122 19.4604 3.47429 19.4513V11.9712C4.1887 11.7937 4.83375 11.3396 5.22744 10.6586C5.62023 9.97838 5.69411 9.19459 5.49321 8.48829L11.9725 4.75405Z" fill="#E10098"/>
</svg>
