<svg width="32" height="55" viewBox="0 0 32 55" fill="none" xmlns="http://www.w3.org/2000/svg">
<path d="M31.9836 23.5606C31.9944 23.5992 32 23.6391 32 23.6791V29.9039C32 30.0665 31.9103 30.2167 31.7648 30.2976L26.377 33.3056V39.2677C26.377 39.43 26.288 39.5798 26.1429 39.6615L14.8963 45.9396C14.8706 45.9537 14.8425 45.9628 14.8144 45.9725C14.8039 45.9759 14.7939 45.9821 14.7828 45.9849C14.7042 46.005 14.6215 46.005 14.5429 45.9849C14.5301 45.9815 14.5184 45.9747 14.5061 45.9702C14.4803 45.9611 14.4534 45.9532 14.4288 45.9396L3.18454 39.6615C3.03914 39.5805 2.94934 39.4303 2.94934 39.2677V20.5934C2.94934 20.5526 2.95519 20.5128 2.96572 20.4743C2.96923 20.4612 2.97742 20.4493 2.9821 20.4363C2.99088 20.4124 2.99907 20.388 3.01194 20.3659C3.02072 20.3512 3.03359 20.3392 3.04412 20.3256C3.05758 20.3075 3.06986 20.2888 3.08566 20.2729C3.09912 20.2598 3.11667 20.2502 3.13188 20.2388C3.14885 20.2252 3.16406 20.2105 3.18337 20.1997H3.18395L8.80639 17.0606C8.95127 16.9798 9.12956 16.9798 9.27444 17.0606L14.8969 20.1997H14.8981C14.9168 20.211 14.9326 20.2252 14.9495 20.2383C14.9648 20.2496 14.9817 20.2598 14.9952 20.2723C15.0116 20.2888 15.0233 20.3075 15.0373 20.3256C15.0472 20.3392 15.0607 20.3512 15.0689 20.3659C15.0823 20.3886 15.09 20.4124 15.0993 20.4363C15.104 20.4493 15.1122 20.4612 15.1157 20.4748C15.1265 20.5135 15.132 20.5534 15.1321 20.5934V32.2572L19.8173 29.6412V23.6786C19.8173 23.6389 19.8231 23.5986 19.8336 23.5606C19.8377 23.5469 19.8453 23.535 19.85 23.522C19.8594 23.4982 19.8676 23.4738 19.8804 23.4516C19.8892 23.4369 19.9021 23.425 19.912 23.4114C19.9261 23.3932 19.9378 23.3745 19.9542 23.3586C19.9676 23.3455 19.9846 23.3359 19.9998 23.3245C20.0173 23.3109 20.0326 23.2962 20.0513 23.2854H20.0519L25.6749 20.1464C25.8197 20.0654 25.9981 20.0654 26.1429 20.1464L31.7654 23.2854C31.7853 23.2968 31.8005 23.3109 31.818 23.324C31.8327 23.3353 31.8496 23.3455 31.8631 23.358C31.8795 23.3745 31.8912 23.3932 31.9052 23.4114C31.9157 23.425 31.9286 23.4369 31.9368 23.4516C31.9503 23.4738 31.9579 23.4982 31.9672 23.522C31.9725 23.535 31.9801 23.5469 31.9836 23.5606ZM31.0627 29.6412V24.4649L29.0952 25.5632L26.377 27.0809V32.2572L31.0633 29.6412H31.0627ZM25.4403 39.0051V33.8253L22.7666 35.306L15.1315 39.5315V44.7601L25.4403 39.0051ZM3.88661 21.3792V39.0051L14.1942 44.7595V39.5321L8.80932 36.5769L8.80756 36.5757L8.80522 36.5746C8.78709 36.5644 8.77187 36.5496 8.75491 36.5372C8.74028 36.5258 8.72331 36.5167 8.71044 36.5043L8.70927 36.5026C8.69406 36.4884 8.68353 36.4708 8.67066 36.4549C8.65896 36.4396 8.64492 36.4265 8.63556 36.4106L8.63497 36.4089C8.62444 36.3919 8.618 36.3715 8.6104 36.3522C8.60279 36.3352 8.59285 36.3193 8.58817 36.3011V36.3006C8.58231 36.279 8.58114 36.2563 8.5788 36.2342C8.57646 36.2172 8.57178 36.2002 8.57178 36.1831V36.182V23.9951L5.85417 22.477L3.88661 21.3797V21.3792ZM9.041 17.9786L4.35641 20.5934L9.03983 23.2082L13.7238 20.5928L9.03983 17.9786H9.041ZM11.4772 34.2973L14.1948 32.7803V21.3792L12.2272 22.4775L9.50905 23.9951V35.3963L11.4772 34.2973ZM25.9089 21.0643L21.2249 23.6791L25.9089 26.294L30.5923 23.6786L25.9089 21.0643ZM25.4403 27.0809L22.7221 25.5632L20.7545 24.4649V29.6412L23.4721 31.1583L25.4403 32.2572V27.0809ZM14.6623 38.7458L21.5327 34.9424L24.967 33.0418L20.2865 30.4287L14.8975 33.4373L9.98588 36.1792L14.6623 38.7458Z" fill="#FF2D20"/>
</svg>
