<svg width="21" height="47" viewBox="0 0 21 47" fill="none" xmlns="http://www.w3.org/2000/svg">
<path d="M20.4164 18.4293C17.9767 7.66654 12.8917 4.80135 11.5945 2.77595C11.0597 1.88372 10.5858 0.956278 10.1763 0C10.1078 0.956127 9.98187 1.55849 9.16916 2.28355C7.53737 3.73846 0.607049 9.38598 0.023812 21.6148C-0.519587 33.0167 8.40586 40.0474 9.58508 40.774C10.4918 41.2202 11.5961 40.7836 12.1348 40.374C16.4373 37.4212 22.3159 29.5491 20.4212 18.4293" fill="#10AA50"/>
<path d="M10.546 34.7026C10.3213 37.5248 10.1603 39.1645 9.58984 40.7772C9.58984 40.7772 9.96433 43.4639 10.2273 46.31H11.1579C11.3799 44.3058 11.7188 42.3164 12.173 40.3517C10.9683 39.7589 10.5922 37.179 10.546 34.7026Z" fill="#B8C4C2"/>
<path d="M12.1714 40.3533C10.9539 39.7908 10.6018 37.1567 10.5476 34.7026C10.8487 30.6545 10.9364 26.5933 10.8105 22.5359C10.7468 20.4069 10.8408 2.81739 10.2863 0.242218C10.6656 1.1144 11.1027 1.96032 11.5946 2.77436C12.8917 4.80135 17.9783 7.66654 20.4164 18.4293C22.3159 29.53 16.4692 37.3814 12.1714 40.3533Z" fill="#12924F"/>
</svg>
