<svg width="35" height="55" viewBox="0 0 35 55" fill="none" xmlns="http://www.w3.org/2000/svg">
<path d="M16.8697 14.7784C15.5571 14.7784 14.2868 14.9005 13.181 15.1074C9.90324 15.6807 9.32789 16.8722 9.32789 19.128V22.0817H17.0341V23.0663H6.45863C4.24441 23.0663 2.27927 24.4197 1.66407 26.9622C0.966677 29.9159 0.926826 31.7205 1.66407 34.7964C2.19707 37.0946 3.50966 38.6923 5.76373 38.6923H8.42876V35.1653C8.42876 32.6228 10.643 30.3671 13.2233 30.3671H20.8871C23.0192 30.3671 24.7402 28.6023 24.7402 26.4288V19.0856C24.7402 16.9943 22.9768 15.4339 20.8871 15.065C19.5322 14.8606 18.1798 14.7385 16.8697 14.7784ZM12.6878 17.1164C13.4674 17.1164 14.1225 17.772 14.1225 18.5921C14.1225 19.4121 13.4674 20.0677 12.6878 20.0677C11.9082 20.0677 11.2532 19.4121 11.2532 18.5921C11.2532 17.772 11.8684 17.1164 12.6878 17.1164Z" fill="url(#paint0_linear)"/>
<path d="M25.6816 22.9819V26.3868C25.6816 29.0539 23.4275 31.2673 20.8447 31.2673H13.1808C11.0912 31.2673 9.32776 33.0719 9.32776 35.2056V42.5488C9.32776 44.64 11.131 45.8714 13.1808 46.4871C15.5993 47.2249 17.9356 47.3495 20.887 46.4871C22.8123 45.9138 24.7401 44.8046 24.7401 42.5488V39.595H17.0314V38.6105H28.5907C30.8049 38.6105 31.6642 37.0526 32.4438 34.7146C33.2632 32.2942 33.2234 29.9986 32.4438 26.8803C31.9108 24.6644 30.8448 22.9844 28.5907 22.9844L25.6816 22.9819ZM21.3353 41.5642C22.1149 41.5642 22.77 42.2197 22.77 43.0398C22.77 43.8599 22.1149 44.5154 21.3353 44.5154C20.5558 44.5154 19.9007 43.8599 19.9007 43.0398C19.9007 42.2197 20.5582 41.5642 21.3353 41.5642Z" fill="url(#paint1_linear)"/>
<defs>
<linearGradient id="paint0_linear" x1="0.276331" y1="15.652" x2="18.0444" y2="30.7795" gradientUnits="userSpaceOnUse">
<stop stop-color="#5CA0D5"/>
<stop offset="1" stop-color="#316A99"/>
</linearGradient>
<linearGradient id="paint1_linear" x1="24.7277" y1="40.2206" x2="18.3505" y2="31.2923" gradientUnits="userSpaceOnUse">
<stop stop-color="#FFD43E"/>
<stop offset="1" stop-color="#FFE975"/>
</linearGradient>
</defs>
</svg>
