<svg width="34" height="30" viewBox="0 0 34 30" fill="none" xmlns="http://www.w3.org/2000/svg">
<path d="M20.1097 14.8488C20.1097 16.564 18.7063 17.9544 16.9752 17.9544C15.244 17.9544 13.8407 16.564 13.8407 14.8488C13.8407 13.1335 15.244 11.7431 16.9752 11.7431C18.7063 11.7431 20.1097 13.1335 20.1097 14.8488Z" fill="#61DAFB"/>
<path fill-rule="evenodd" clip-rule="evenodd" d="M26.7353 9.24904C31.0152 10.547 33.8068 12.6401 33.8068 14.8488C33.8068 17.0506 31.029 19.1437 26.7765 20.4417C27.771 24.7502 27.3389 28.1821 25.4116 29.283C24.9589 29.5412 24.4376 29.6635 23.8615 29.6635C21.9753 29.6635 19.5061 28.3452 17.0095 26.0482C14.5129 28.3588 12.0437 29.6907 10.1575 29.6907C9.58134 29.6907 9.06007 29.5684 8.61424 29.3102C6.68005 28.2092 6.24109 24.7706 7.22876 20.4485C2.94884 19.1505 0.157288 17.0574 0.157288 14.8488C0.157288 12.6469 2.93512 10.5606 7.20132 9.25584C6.20679 4.94732 6.6389 1.51546 8.56623 0.41454C9.01892 0.156302 9.54019 0.0271847 10.1163 0.0271847C12.0025 0.0271847 14.4717 1.34556 16.9683 3.64253C19.4649 1.33197 21.9341 0 23.8203 0C24.3869 0.000978883 24.9058 0.130158 25.3498 0.38736C27.284 1.48828 27.723 4.92693 26.7353 9.24904ZM23.8134 1.51546C22.3869 1.51907 20.2913 2.64685 18.0589 4.70268C19.026 5.70165 19.9862 6.84334 20.9122 8.10056C22.4554 8.26366 23.9232 8.5151 25.2675 8.8413C25.4184 8.15493 25.5419 7.48214 25.6173 6.84334C25.9328 4.24736 25.5282 2.22901 24.5954 1.69894C24.3827 1.58341 24.129 1.51546 23.8134 1.51546ZM15.8778 4.70947C13.6418 2.66394 11.5361 1.54264 10.1163 1.54264C9.80082 1.54264 9.53333 1.6038 9.32757 1.72613C8.40162 2.26299 8.00381 4.28134 8.32617 6.87732C8.40848 7.50933 8.52508 8.16852 8.68283 8.8481C10.0272 8.5151 11.495 8.26366 13.0451 8.10056C13.9573 6.84334 14.9175 5.70845 15.8778 4.70947ZM23.9506 13.0003C24.3073 12.0965 24.6228 11.1926 24.8766 10.316C23.9781 10.0985 23.0384 9.92183 22.0644 9.77912C22.4005 10.2956 22.7366 10.8257 23.0521 11.3693C23.3745 11.913 23.6694 12.4566 23.9506 13.0003ZM20.0822 20.1495C20.6515 19.3408 21.2002 18.4709 21.7352 17.5535C22.2496 16.6632 22.7229 15.7526 23.155 14.842C22.7229 13.9313 22.2496 13.0275 21.7284 12.1372C21.1934 11.2266 20.6378 10.3636 20.0685 9.55485C19.0534 9.47331 18.0177 9.42574 16.982 9.42574C15.9395 9.42574 14.9038 9.47331 13.8818 9.56165C13.3126 10.3703 12.7638 11.2402 12.2289 12.1576C11.7144 13.0479 11.2343 13.9585 10.8091 14.8691C11.2412 15.7798 11.7144 16.6836 12.2357 17.5739C12.7707 18.4845 13.3263 19.3476 13.8956 20.1563C14.9107 20.2378 15.9464 20.2854 16.982 20.2854C18.0246 20.2854 19.0603 20.2378 20.0822 20.1495ZM24.8971 19.3747C24.6365 18.4913 24.321 17.5807 23.9506 16.67C23.6694 17.2137 23.3745 17.7642 23.059 18.3078C22.7435 18.8583 22.4074 19.3951 22.0713 19.9184C23.0521 19.7757 23.9986 19.5922 24.8971 19.3747ZM15.089 21.7465C15.72 22.5416 16.3579 23.2687 16.9958 23.9211C17.6268 23.2687 18.2646 22.5416 18.8819 21.7465C18.2578 21.7804 17.6199 21.794 16.9752 21.794C16.3373 21.794 15.7063 21.7737 15.089 21.7465ZM9.08065 19.3815C9.97916 19.599 10.9188 19.7757 11.8928 19.9184C11.5567 19.4019 11.2275 18.8719 10.9051 18.3282C10.5827 17.7845 10.2878 17.2409 10.0066 16.6972C9.64993 17.601 9.33442 18.5049 9.08065 19.3815ZM18.8682 7.95105C18.2372 7.15595 17.5993 6.4288 16.9615 5.77641C16.3304 6.4288 15.6926 7.15595 15.0753 7.95105C15.6994 7.91707 16.3373 7.90348 16.982 7.90348C17.6199 7.90348 18.2509 7.92387 18.8682 7.95105ZM10.8982 11.3897C11.2137 10.8393 11.5498 10.3024 11.8859 9.77912C10.9051 9.92183 9.95858 10.1053 9.06007 10.316C9.3207 11.1994 9.63621 12.1101 10.0066 13.0207C10.2878 12.477 10.5827 11.9334 10.8982 11.3897ZM1.67995 14.8488C1.67995 15.9157 3.25063 17.2613 5.67866 18.2874C6.27538 18.5389 6.92011 18.7699 7.59914 18.9806C7.98323 17.6554 8.49079 16.2759 9.1218 14.8624C8.48393 13.442 7.96952 12.0557 7.57856 10.7237C6.91325 10.9344 6.26852 11.1587 5.67866 11.4101C3.25063 12.4295 1.67995 13.7818 1.67995 14.8488ZM8.34675 22.8542C8.03124 25.4502 8.43592 27.4685 9.36872 27.9986C9.57448 28.1141 9.83512 28.1753 10.1438 28.1821C11.5704 28.1821 13.6692 27.054 15.9052 24.9949C14.9381 23.9959 13.9779 22.8542 13.0519 21.597C11.5087 21.4339 10.0409 21.1824 8.69655 20.8562C8.54566 21.5426 8.4222 22.2154 8.34675 22.8542ZM24.6365 27.9714C25.5625 27.4345 25.9603 25.4162 25.6379 22.8202C25.5625 22.1882 25.439 21.529 25.2812 20.8426C23.9369 21.1756 22.4691 21.4271 20.919 21.5902C20.0068 22.8474 19.0466 23.9823 18.0863 24.9813C20.3223 27.0268 22.428 28.1481 23.8477 28.1481C24.1632 28.1481 24.4307 28.0937 24.6365 27.9714ZM26.3787 18.9738C27.044 18.7631 27.6887 18.5389 28.2786 18.2874C30.7066 17.2681 32.2773 15.9157 32.2841 14.8488C32.2841 13.7818 30.7134 12.4363 28.2854 11.4101C27.6818 11.1587 27.0371 10.9276 26.3581 10.7169C25.974 12.0421 25.4664 13.4216 24.8354 14.8352C25.4733 16.2555 25.9877 17.6418 26.3787 18.9738Z" fill="#61DAFB"/>
</svg>
