<svg width="45" height="44" viewBox="0 0 45 44" fill="none" xmlns="http://www.w3.org/2000/svg">
<path d="M8.83992 3.98799C8.5801 4.60106 8.28733 5.20273 8.06679 5.82965C7.53191 7.35065 7.39605 8.92232 7.52999 10.5259C7.63658 11.8001 7.88377 13.0385 8.37604 14.2217C9.05345 15.8498 10.1183 17.1853 11.4722 18.3006C12.8032 19.3969 14.296 20.2263 15.8527 20.9482C17.8117 21.8565 19.8423 22.5802 21.8791 23.2895C24.0025 24.0288 26.099 24.8357 28.0886 25.895C29.445 26.6171 30.7238 27.4507 31.8114 28.5497C33.1648 29.917 33.9756 31.5454 34.2207 33.4637C34.5419 35.9787 33.8122 38.1516 32.1378 40.0218C30.5458 41.8 28.5399 42.8997 26.2582 43.5224C24.4986 44.0028 22.7085 44.1072 20.8991 43.8965C17.3271 43.4803 14.1875 42.0252 11.3332 39.8952C10.8558 39.5388 10.4093 39.1408 9.94876 38.7618C9.88881 38.7124 9.83201 38.6587 9.771 38.6105C9.41371 38.3283 9.06519 38.3097 8.703 38.5837C8.50928 38.7303 8.34501 38.9154 8.14218 39.107C7.70758 38.7124 7.24896 38.3218 6.81927 37.9017C3.83511 34.9845 1.79168 31.5146 0.72508 27.4761C0.325018 25.9614 0.0953593 24.4202 0.0247086 22.8544C-0.1627 18.7046 0.715262 14.7951 2.68296 11.1376C4.1945 8.32819 6.22619 5.95464 8.75174 4.00465C8.77172 3.98922 8.79609 3.97958 8.81853 3.96713C8.82572 3.97397 8.8329 3.98098 8.83992 3.98799Z" fill="#729544"/>
<path d="M36.619 39.1249C36.7931 38.6931 36.9824 38.2666 37.1384 37.8285C37.5026 36.8067 37.677 35.7503 37.6849 34.6651C37.6961 33.149 37.4945 31.6683 36.9694 30.2394C36.4025 28.6959 35.4987 27.3741 34.3275 26.2298C33.0211 24.9535 31.5043 23.9758 29.8963 23.1303C27.6248 21.9361 25.2349 21.0238 22.8172 20.1812C21.1905 19.6144 19.5497 19.0866 17.9719 18.3879C16.4432 17.7112 14.9734 16.9344 13.6903 15.845C12.4517 14.7937 11.5106 13.5306 11.0592 11.9549C10.2249 9.04294 10.693 6.36084 12.5742 3.96222C13.6144 2.63599 14.9613 1.70859 16.5079 1.06221C17.834 0.508052 19.2214 0.210197 20.6496 0.0806419C21.6531 -0.0105203 22.6571 -0.0326096 23.6603 0.0573254C25.1515 0.190913 26.5981 0.534174 28.0078 1.03451C29.5893 1.59569 31.0958 2.31236 32.5102 3.21908C32.608 3.28166 32.7123 3.33618 32.8186 3.38334C33.1904 3.54814 33.5328 3.49432 33.8203 3.20786C33.9695 3.05919 34.0896 2.88125 34.2423 2.69244C34.6185 2.94489 35.0156 3.19856 35.3992 3.471C38.0886 5.38172 40.2604 7.76684 41.9062 10.625C43.1685 12.8164 44.0292 15.1587 44.4928 17.6471C44.7871 19.227 44.9186 20.82 44.8699 22.4248C44.7826 25.3052 44.1793 28.0741 43.0282 30.7197C41.8357 33.4599 40.1605 35.8662 38.0117 37.9405C37.5744 38.3626 37.0976 38.7441 36.639 39.1443C36.6325 39.1377 36.6256 39.1312 36.619 39.1249Z" fill="#93BD5A"/>
</svg>
