<svg width="55" height="76" viewBox="0 0 55 76" fill="none" xmlns="http://www.w3.org/2000/svg">
<path d="M54.9521 56V40.4H48.7121C48.8161 39.464 49.2321 35.72 49.2321 30.416V16.688L33.0081 19.08L32.0721 25.632C31.1361 32.184 31.0321 35.928 31.0321 39.152C31.0321 39.672 31.0321 40.088 31.1361 40.4C30.8241 40.296 30.3041 40.296 29.7841 40.296H21.9841C20.9441 40.296 19.9041 40.296 19.5921 40.4C21.5681 38.424 23.2321 34.472 24.2721 31.872L36.8561 0.984009H18.8641L0.560059 44.456V56H28.0161C29.0561 56 30.7201 55.896 31.2401 55.584C31.0321 56.52 31.0321 57.456 31.0321 58.08V75.864L49.2321 74.616V59.952C49.2321 58.08 49.1281 56.208 49.0241 55.792C49.3361 55.896 50.1681 56 51.2081 56H54.9521Z" fill="#6E81C1"/>
</svg>
