<svg width="51" height="76" viewBox="0 0 51 76" fill="none" xmlns="http://www.w3.org/2000/svg">
<path d="M8.75896 20.848C12.295 17.208 16.767 15.232 22.695 15.232C26.543 15.232 29.143 17.312 29.143 20.432C29.143 25.944 26.751 28.024 18.743 28.128C16.351 28.128 13.855 27.92 11.671 27.608V42.896C15.415 42.48 18.431 42.168 21.655 42.376C28.311 42.896 29.455 46.328 29.455 48.928C29.455 58.288 19.991 61.512 6.67896 61.512C4.70296 61.512 2.51896 61.304 0.230957 60.888L3.35096 74.72C6.05496 75.032 10.319 75.24 13.127 75.24C35.071 75.24 50.671 65.464 50.671 50.904C50.671 43.624 46.927 37.072 39.647 35.096C46.095 32.08 49.111 26.672 49.111 19.184C49.111 7.74399 39.127 0.359985 24.775 0.359985C12.919 0.359985 4.70296 5.03999 0.750957 7.95199L8.75896 20.848Z" fill="#6E81C1"/>
</svg>
