<svg width="34" height="55" viewBox="0 0 34 55" fill="none" xmlns="http://www.w3.org/2000/svg">
<path d="M16.5369 16L1.83203 21.1746L4.15559 40.4401L16.5524 47.2534L29.0134 40.3488L31.3359 21.0833L16.5369 16Z" fill="#B3B3B3"/>
<path d="M29.8715 22.1967L16.5062 17.6389V45.6255L27.7073 39.4261L29.8715 22.1967Z" fill="#A6120D"/>
<path d="M3.48047 22.2792L5.47278 39.5087L16.5019 45.6255V17.6389L3.48047 22.2792Z" fill="#DD1B16"/>
<path d="M20.181 32.5376L16.5014 34.2579H12.6226L10.7993 38.8176L7.40918 38.8798L16.5004 18.6545L20.181 32.5376ZM19.8245 31.6711L16.5256 25.1395L13.8194 31.5584H16.5014L19.8245 31.6711Z" fill="#F2F2F2"/>
<path d="M16.5062 18.6545L16.5295 25.1395L19.6011 31.5643H16.5121L16.5062 34.254L20.7755 34.2579L22.7717 38.8807L26.0161 38.941L16.5062 18.6545Z" fill="#B3B3B3"/>
</svg>
