<svg width="25" height="55" viewBox="0 0 25 55" fill="none" xmlns="http://www.w3.org/2000/svg">
<path fill-rule="evenodd" clip-rule="evenodd" d="M24.084 19.6093L21.8975 44.0413L12.0693 46.7591L2.26813 44.0451L0.0839844 19.6093H24.084Z" fill="#E44D26"/>
<path fill-rule="evenodd" clip-rule="evenodd" d="M12.0852 44.6818L20.0269 42.4856L21.8954 21.6073H12.0852V44.6818Z" fill="#F16529"/>
<path fill-rule="evenodd" clip-rule="evenodd" d="M7.83407 27.6014H12.0845V24.6044H4.55048L4.6224 25.4084L5.36085 33.6672H12.0845V30.6703H8.10865L7.83407 27.6014Z" fill="#EBEBEB"/>
<path fill-rule="evenodd" clip-rule="evenodd" d="M8.51091 35.1658H5.49481L5.91575 39.8714L12.0703 41.5757L12.0842 41.5718V38.4537L12.071 38.4572L8.72482 37.556L8.51091 35.1658Z" fill="#EBEBEB"/>
<path fill-rule="evenodd" clip-rule="evenodd" d="M2.31628 12.9688H3.84316V14.4735H5.23988V12.9688H6.76682V17.5254H5.23995V15.9996H3.84322V17.5254H2.31635V12.9688H2.31628Z" fill="black"/>
<path fill-rule="evenodd" clip-rule="evenodd" d="M8.77553 14.4798H7.43134V12.9688H11.6473V14.4798H10.3025V17.5254H8.77559V14.4798H8.77553Z" fill="black"/>
<path fill-rule="evenodd" clip-rule="evenodd" d="M12.3149 12.9688H13.907L14.8864 14.5698L15.8647 12.9688H17.4574V17.5254H15.9368V15.2669L14.8864 16.8871H14.8601L13.8089 15.2669V17.5254H12.3149V12.9688Z" fill="black"/>
<path fill-rule="evenodd" clip-rule="evenodd" d="M18.2199 12.9688H19.7472V16.0193H21.8945V17.5254H18.2199V12.9688Z" fill="black"/>
<path fill-rule="evenodd" clip-rule="evenodd" d="M12.0723 33.6673H15.7721L15.4233 37.5542L12.0723 38.4563V41.5743L18.2318 39.8715L18.277 39.3652L18.983 31.4752L19.0564 30.6704H12.0723V33.6673Z" fill="white"/>
<path fill-rule="evenodd" clip-rule="evenodd" d="M12.0723 27.594V27.6014H19.3297L19.39 26.9277L19.5269 25.4084L19.5988 24.6044H12.0723V27.594Z" fill="white"/>
</svg>
