<svg width="35" height="55" viewBox="0 0 35 55" fill="none" xmlns="http://www.w3.org/2000/svg">
<path d="M3.16741 22.6058C3.16741 22.9469 2.9597 23.1992 2.60338 23.1992C2.30665 23.1992 2.08398 22.9469 2.08398 22.6058C2.08398 22.2791 2.32137 22.0121 2.63305 22.0121C2.9597 22.0121 3.16741 22.2791 3.16741 22.6058ZM2.34605 40.4431V26.7986H2.90534V40.4431H2.34605Z" fill="black"/>
<path d="M21.508 30.7214C21.508 37.6005 17.6892 40.7274 13.5091 40.7274C9.239 40.7274 5.78101 37.3449 5.78101 31.0059C5.78101 24.4966 9.35943 21 13.8098 21C18.17 20.9998 21.508 24.4393 21.508 30.7214ZM6.34778 30.8636C6.34778 36.0795 8.87569 40.1314 13.5356 40.1314C18.2278 40.1314 20.9191 35.9548 20.9191 30.8042C20.9191 26.0279 18.7627 21.669 13.842 21.669C8.92132 21.669 6.34778 25.7731 6.34778 30.8636Z" fill="black"/>
<path d="M23.5589 38.9647C24.4972 39.5901 26.1167 40.194 27.5096 40.194C30.1532 40.194 32.5043 38.3446 32.5043 35.6224C32.5043 33.0963 30.9382 31.7782 28.2791 30.6459C25.8993 29.6325 23.7596 28.5326 23.7596 25.8322C23.7596 23.0183 25.9766 21.0282 28.9897 21.0282C30.61 21.0282 31.8323 21.483 32.4009 21.881L32.1747 22.3717C31.6915 22.0308 30.3856 21.5965 28.9646 21.5965C25.7801 21.5965 24.393 24.0027 24.393 25.7741C24.393 28.2207 26.2895 29.0388 28.7342 30.2043C31.5768 31.5972 33.0831 32.825 33.0831 35.4972C33.0831 38.3683 31.0367 40.6989 27.3981 40.6989C25.8913 40.6989 24.1576 40.1873 23.3048 39.5335L23.5589 38.9647Z" fill="black"/>
</svg>
