<svg width="51" height="55" viewBox="0 0 51 55" fill="none" xmlns="http://www.w3.org/2000/svg">
<path d="M25.5265 42.4095C39.0786 42.4095 50.0648 36.844 50.0648 29.9786C50.0648 23.1132 39.0786 17.5476 25.5265 17.5476C11.9743 17.5476 0.988144 23.1132 0.988144 29.9786C0.988144 36.844 11.9743 42.4095 25.5265 42.4095Z" fill="#6181B6"/>
<path fill-rule="evenodd" clip-rule="evenodd" d="M31.714 27.7346L30.4947 33.9964C30.4577 34.1904 30.2919 34.3196 30.0986 34.3288H27.143C27.023 34.3288 26.9124 34.2731 26.8385 34.1809C26.7645 34.0886 26.7367 33.9689 26.7554 33.8485L27.8916 27.8825C28.0395 27.1529 27.9103 26.9128 27.8455 26.848C27.7807 26.7741 27.5311 26.6079 26.6818 26.6079H24.6868L23.2551 33.996C23.2182 34.1805 23.0611 34.3192 22.8671 34.3192H19.9581C19.838 34.3192 19.7271 34.264 19.6531 34.1714C19.5792 34.0795 19.5514 33.959 19.5701 33.8393L20.0964 31.1517C19.7824 31.7151 19.3665 32.232 18.8588 32.6939C18.2398 33.2756 17.5289 33.7002 16.7624 33.9499C16.005 34.1992 15.0445 34.3192 13.8995 34.3192H11.7199L11.0826 37.5797C11.0457 37.7639 10.8886 37.9029 10.6946 37.9029H7.75774C7.63732 37.9029 7.52676 37.8473 7.45282 37.7551C7.37888 37.6628 7.35142 37.5427 7.36973 37.4223L9.99253 23.9664C10.0295 23.7819 10.1865 23.6432 10.3805 23.6432H16.0233C17.8243 23.6432 19.182 24.1326 20.0317 25.1114C20.4933 25.6378 20.7795 26.2843 20.8996 27.0325L22.1925 20.3831C22.2295 20.1986 22.3865 20.0598 22.5805 20.0598H25.4896C25.61 20.0598 25.7206 20.1155 25.7945 20.2077C25.8684 20.3 25.8959 20.42 25.8772 20.5401L25.2773 23.6432H27.3825C29.1374 23.6432 30.3285 23.9572 31.0306 24.6037C31.7602 25.2688 31.9911 26.3216 31.714 27.7346ZM15.9857 30.819C16.4846 30.431 16.8265 29.7662 17.011 28.8243C17.1775 27.9656 17.1127 27.3561 16.8353 27.0508C16.6413 26.8293 16.1427 26.5614 14.9051 26.5614H13.2245L12.2823 31.4007H13.5847C14.6741 31.4007 15.4779 31.207 15.9857 30.819Z" fill="white"/>
<path fill-rule="evenodd" clip-rule="evenodd" d="M38.9267 23.6432C40.7277 23.6432 42.0854 24.1326 42.935 25.1114C43.7942 26.0998 44.0621 27.4663 43.7385 29.1842C43.5998 29.8771 43.3692 30.5236 43.0459 31.1053C42.7227 31.6873 42.2886 32.2228 41.7713 32.7031C41.1527 33.2848 40.4418 33.7098 39.6749 33.9587C38.9175 34.2083 37.957 34.3284 36.812 34.3284H34.6325L33.9952 37.5885C33.9578 37.7734 33.8012 37.9117 33.6071 37.9117H30.6699C30.5502 37.9117 30.4393 37.8565 30.3653 37.7639C30.2918 37.672 30.2636 37.5515 30.2823 37.4318L32.8963 23.9664C32.9332 23.7819 33.0903 23.6432 33.2843 23.6432H38.9267ZM38.8721 30.8187C39.3707 30.4306 39.7126 29.7659 39.8967 28.824C40.0629 27.9652 40.0077 27.3557 39.7214 27.0505C39.5277 26.829 39.0292 26.561 37.7915 26.561H36.1106L35.1687 31.4003H36.4708C37.5605 31.4003 38.364 31.2067 38.8721 30.8187Z" fill="white"/>
</svg>
